<svg width="57" height="38" viewBox="0 0 57 38" fill="none" xmlns="http://www.w3.org/2000/svg">
<rect x="1.2181" y="0.395833" width="54.625" height="37.2083" rx="4.35417" fill="#1F72CD" stroke="#D9D9D9" stroke-width="0.791667"/>
<path fill-rule="evenodd" clip-rule="evenodd" d="M10.7567 13.4584L5.57178 24.9324H11.7788L12.5483 23.1029H14.3072L15.0767 24.9324H21.9089V23.5361L22.5177 24.9324H26.0519L26.6607 23.5066V24.9324H40.8698L42.5976 23.1505L44.2154 24.9324L51.5135 24.9471L46.3123 19.2274L51.5135 13.4584H44.3286L42.6467 15.2074L41.0798 13.4584H25.6221L24.2948 16.4199L22.9363 13.4584H16.7422V14.8071L16.0531 13.4584H10.7567ZM11.9578 15.0877H14.9834L18.4225 22.8683V15.0877H21.7369L24.3933 20.6663L26.8414 15.0877H30.1393V23.3211H28.1326L28.1162 16.8695L25.1907 23.3211H23.3956L20.4537 16.8695V23.3211H16.3255L15.5428 21.4753H11.3146L10.5336 23.3194H8.32174L11.9578 15.0877ZM40.1347 15.0877H31.9751V23.3162H40.0083L42.5976 20.5891L45.0932 23.3162H47.702L43.9102 19.2258L47.702 15.0877H45.2064L42.6303 17.7834L40.1347 15.0877ZM13.4296 16.4807L12.0365 19.7689H14.821L13.4296 16.4807ZM33.9898 18.2954V16.7924V16.791H39.0812L41.3027 19.1946L38.9827 21.6115H33.9898V19.9706H38.4412V18.2954H33.9898Z" fill="white"/>
</svg>
