<svg width="57" height="39" viewBox="0 0 57 39" fill="none" xmlns="http://www.w3.org/2000/svg">
<rect x="0.64215" y="0.402893" width="55.5992" height="37.8719" rx="4.43182" fill="white" stroke="#D9D9D9" stroke-width="0.805785"/>
<path d="M24.0103 37.8718L55.8388 28.6052V33.8428C55.8388 36.0679 54.035 37.8718 51.8099 37.8718H24.0103Z" fill="#FD6020"/>
<path fill-rule="evenodd" clip-rule="evenodd" d="M49.7974 15.4886C51.5484 15.4886 52.5115 16.2678 52.5115 17.7398C52.5991 18.8654 51.8111 19.8178 50.7605 19.991L53.1244 23.1946H51.2858L49.2721 20.0776H49.097V23.1946H47.6086V15.4886H49.7974ZM49.0969 19.0384H49.5347C50.4977 19.0384 50.9355 18.6054 50.9355 17.8262C50.9355 17.1335 50.4977 16.7006 49.5347 16.7006H49.0969V19.0384ZM42.443 23.1946H46.6455V21.8958H43.9314V19.8178H46.558V18.519H43.9314V16.7873H46.6455V15.4886H42.443V23.1946ZM38.0653 20.6836L36.0516 15.4886H34.4756L37.7151 23.3678H38.503L41.7425 15.4886H40.1665L38.0653 20.6836ZM20.2917 19.3849C20.2917 21.5495 22.0428 23.3678 24.2316 23.3678C24.932 23.3678 25.5449 23.1946 26.1578 22.9349V21.2032C25.72 21.7227 25.1072 22.069 24.4067 22.069C23.0059 22.069 21.8677 21.03 21.8677 19.6446V19.4715C21.7801 18.0861 22.9183 16.8739 24.3192 16.7873C25.0196 16.7873 25.72 17.1337 26.1578 17.6532V15.9215C25.6325 15.5752 24.932 15.4886 24.3192 15.4886C22.0428 15.3154 20.2917 17.1337 20.2917 19.3849ZM17.5777 18.4325C16.7022 18.0861 16.4395 17.9129 16.4395 17.48C16.527 16.9605 16.9648 16.5276 17.4901 16.6142C17.9279 16.6142 18.3657 16.8739 18.7159 17.2203L19.5038 16.1813C18.891 15.6617 18.103 15.3154 17.315 15.3154C16.0893 15.2288 15.0386 16.1813 14.9511 17.3934V17.48C14.9511 18.519 15.3889 19.1251 16.7897 19.5581C17.1399 19.6446 17.4901 19.8178 17.8403 19.991C18.103 20.1642 18.2781 20.4239 18.2781 20.7702C18.2781 21.3763 17.7528 21.8958 17.2275 21.8958H17.1399C16.4395 21.8958 15.8266 21.4629 15.564 20.8568L14.6009 21.8093C15.1262 22.7617 16.1768 23.2812 17.2275 23.2812C18.6283 23.3678 19.7665 22.3288 19.8541 20.9434V20.6837C19.7665 19.6446 19.3287 19.1251 17.5777 18.4325ZM12.4999 23.1946H13.9883V15.4886H12.4999V23.1946ZM5.58301 15.4886H7.77183H8.2096C10.3109 15.5751 11.9744 17.3068 11.8868 19.3849C11.8868 20.5105 11.3615 21.5495 10.486 22.3288C9.698 22.9349 8.73492 23.2812 7.77183 23.1946H5.58301V15.4886ZM7.50944 21.8957C8.20986 21.9823 8.99784 21.7225 9.52316 21.2896C10.0485 20.7701 10.3111 20.0774 10.3111 19.2982C10.3111 18.6055 10.0485 17.9128 9.52316 17.3933C8.99784 16.9604 8.20986 16.7006 7.50944 16.7872H7.07167V21.8957H7.50944Z" fill="black"/>
<path fill-rule="evenodd" clip-rule="evenodd" d="M30.6231 15.3098C28.4343 15.3098 26.5957 17.0415 26.5957 19.2927C26.5957 21.4573 28.3468 23.2756 30.6231 23.3622C32.8995 23.4488 34.6506 21.6305 34.7381 19.3793C34.6506 17.1281 32.8995 15.3098 30.6231 15.3098V15.3098Z" fill="#FD6020"/>
</svg>
