<svg xmlns="http://www.w3.org/2000/svg" width="253" height="610" viewBox="0 0 253 610" fill="none">
<rect width="253" height="610" rx="20" fill="white"/>
<path d="M41.4297 44.832V46.64H36.7737V49.504H40.3417V51.28H36.7737V56H34.5337V44.832H41.4297ZM44.1541 46.08C43.7594 46.08 43.4287 45.9573 43.1621 45.712C42.9061 45.456 42.7781 45.1413 42.7781 44.768C42.7781 44.3947 42.9061 44.0853 43.1621 43.84C43.4287 43.584 43.7594 43.456 44.1541 43.456C44.5487 43.456 44.8741 43.584 45.1301 43.84C45.3967 44.0853 45.5301 44.3947 45.5301 44.768C45.5301 45.1413 45.3967 45.456 45.1301 45.712C44.8741 45.9573 44.5487 46.08 44.1541 46.08ZM45.2581 47.136V56H43.0181V47.136H45.2581ZM49.7112 44.16V56H47.4712V44.16H49.7112ZM60.1643 51.376C60.1643 51.696 60.143 51.984 60.1003 52.24H53.6203C53.6736 52.88 53.8976 53.3813 54.2923 53.744C54.687 54.1067 55.1723 54.288 55.7483 54.288C56.5803 54.288 57.1723 53.9307 57.5243 53.216H59.9403C59.6843 54.0693 59.1936 54.7733 58.4683 55.328C57.743 55.872 56.8523 56.144 55.7963 56.144C54.943 56.144 54.175 55.9573 53.4923 55.584C52.8203 55.2 52.2923 54.6613 51.9083 53.968C51.535 53.2747 51.3483 52.4747 51.3483 51.568C51.3483 50.6507 51.535 49.8453 51.9083 49.152C52.2816 48.4587 52.8043 47.9253 53.4763 47.552C54.1483 47.1787 54.9216 46.992 55.7963 46.992C56.639 46.992 57.391 47.1733 58.0523 47.536C58.7243 47.8987 59.2416 48.416 59.6043 49.088C59.9776 49.7493 60.1643 50.512 60.1643 51.376ZM57.8443 50.736C57.8336 50.16 57.6256 49.7013 57.2203 49.36C56.815 49.008 56.319 48.832 55.7323 48.832C55.1776 48.832 54.7083 49.0027 54.3243 49.344C53.951 49.6747 53.7216 50.1387 53.6363 50.736H57.8443ZM70.5238 47.008C71.5798 47.008 72.4331 47.344 73.0838 48.016C73.7345 48.6773 74.0598 49.6053 74.0598 50.8V56H71.8198V51.104C71.8198 50.4 71.6438 49.8613 71.2918 49.488C70.9398 49.104 70.4598 48.912 69.8518 48.912C69.2331 48.912 68.7425 49.104 68.3798 49.488C68.0278 49.8613 67.8518 50.4 67.8518 51.104V56H65.6118V47.136H67.8518V48.24C68.1505 47.856 68.5291 47.5573 68.9878 47.344C69.4571 47.12 69.9691 47.008 70.5238 47.008ZM75.6139 51.536C75.6139 50.64 75.7899 49.8453 76.1419 49.152C76.5046 48.4587 76.9899 47.9253 77.5979 47.552C78.2166 47.1787 78.9046 46.992 79.6619 46.992C80.3233 46.992 80.8993 47.1253 81.3899 47.392C81.8913 47.6587 82.2913 47.9947 82.5899 48.4V47.136H84.8459V56H82.5899V54.704C82.3019 55.12 81.9019 55.4667 81.3899 55.744C80.8886 56.0107 80.3073 56.144 79.6459 56.144C78.8993 56.144 78.2166 55.952 77.5979 55.568C76.9899 55.184 76.5046 54.6453 76.1419 53.952C75.7899 53.248 75.6139 52.4427 75.6139 51.536ZM82.5899 51.568C82.5899 51.024 82.4833 50.56 82.2699 50.176C82.0566 49.7813 81.7686 49.4827 81.4059 49.28C81.0433 49.0667 80.6539 48.96 80.2379 48.96C79.8219 48.96 79.4379 49.0613 79.0859 49.264C78.7339 49.4667 78.4459 49.7653 78.2219 50.16C78.0086 50.544 77.9019 51.0027 77.9019 51.536C77.9019 52.0693 78.0086 52.5387 78.2219 52.944C78.4459 53.3387 78.7339 53.6427 79.0859 53.856C79.4486 54.0693 79.8326 54.176 80.2379 54.176C80.6539 54.176 81.0433 54.0747 81.4059 53.872C81.7686 53.6587 82.0566 53.36 82.2699 52.976C82.4833 52.5813 82.5899 52.112 82.5899 51.568ZM98.0417 47.008C99.1297 47.008 100.004 47.344 100.666 48.016C101.338 48.6773 101.674 49.6053 101.674 50.8V56H99.4337V51.104C99.4337 50.4107 99.2577 49.8827 98.9057 49.52C98.5537 49.1467 98.0737 48.96 97.4657 48.96C96.8577 48.96 96.3724 49.1467 96.0097 49.52C95.6577 49.8827 95.4817 50.4107 95.4817 51.104V56H93.2417V51.104C93.2417 50.4107 93.0657 49.8827 92.7137 49.52C92.3617 49.1467 91.8817 48.96 91.2737 48.96C90.655 48.96 90.1644 49.1467 89.8017 49.52C89.4497 49.8827 89.2737 50.4107 89.2737 51.104V56H87.0337V47.136H89.2737V48.208C89.5617 47.8347 89.9297 47.5413 90.3777 47.328C90.8364 47.1147 91.3377 47.008 91.8817 47.008C92.575 47.008 93.1937 47.1573 93.7377 47.456C94.2817 47.744 94.703 48.16 95.0017 48.704C95.2897 48.192 95.7057 47.7813 96.2497 47.472C96.8044 47.1627 97.4017 47.008 98.0417 47.008ZM112.039 51.376C112.039 51.696 112.018 51.984 111.975 52.24H105.495C105.549 52.88 105.773 53.3813 106.167 53.744C106.562 54.1067 107.047 54.288 107.623 54.288C108.455 54.288 109.047 53.9307 109.399 53.216H111.815C111.559 54.0693 111.069 54.7733 110.343 55.328C109.618 55.872 108.727 56.144 107.671 56.144C106.818 56.144 106.05 55.9573 105.367 55.584C104.695 55.2 104.167 54.6613 103.783 53.968C103.41 53.2747 103.223 52.4747 103.223 51.568C103.223 50.6507 103.41 49.8453 103.783 49.152C104.157 48.4587 104.679 47.9253 105.351 47.552C106.023 47.1787 106.797 46.992 107.671 46.992C108.514 46.992 109.266 47.1733 109.927 47.536C110.599 47.8987 111.117 48.416 111.479 49.088C111.853 49.7493 112.039 50.512 112.039 51.376ZM109.719 50.736C109.709 50.16 109.501 49.7013 109.095 49.36C108.69 49.008 108.194 48.832 107.607 48.832C107.053 48.832 106.583 49.0027 106.199 49.344C105.826 49.6747 105.597 50.1387 105.511 50.736H109.719Z" fill="#414142"/>
<line x1="3.24211e-08" y1="92.5" x2="253" y2="92.5" stroke="#F1F1F1"/>
<line x1="3.25653e-08" y1="146.5" x2="253" y2="146.5" stroke="#F1F1F1"/>
<line x1="3.25653e-08" y1="258.5" x2="253" y2="258.5" stroke="#F1F1F1"/>
<line x1="3.25653e-08" y1="202.5" x2="253" y2="202.5" stroke="#F1F1F1"/>
<line x1="3.25653e-08" y1="314.5" x2="253" y2="314.5" stroke="#F1F1F1"/>
<line x1="3.25653e-08" y1="370.5" x2="253" y2="370.5" stroke="#F1F1F1"/>
<path d="M37.5193 110.242C38.5833 110.242 39.5027 110.443 40.2773 110.844C41.0613 111.236 41.6587 111.801 42.0693 112.538C42.4893 113.275 42.6993 114.143 42.6993 115.142C42.6993 116.141 42.4893 117.009 42.0693 117.746C41.6587 118.474 41.0613 119.034 40.2773 119.426C39.5027 119.809 38.5833 120 37.5193 120H34.4813V110.242H37.5193ZM37.5193 118.95C38.7793 118.95 39.7407 118.619 40.4033 117.956C41.066 117.284 41.3973 116.346 41.3973 115.142C41.3973 113.929 41.0613 112.981 40.3893 112.3C39.7267 111.619 38.77 111.278 37.5193 111.278H35.7553V118.95H37.5193ZM51.3798 115.87C51.3798 116.113 51.3658 116.369 51.3378 116.64H45.2058C45.2524 117.396 45.5091 117.989 45.9758 118.418C46.4518 118.838 47.0258 119.048 47.6978 119.048C48.2484 119.048 48.7058 118.922 49.0698 118.67C49.4431 118.409 49.7044 118.063 49.8538 117.634H51.2258C51.0204 118.371 50.6098 118.973 49.9938 119.44C49.3778 119.897 48.6124 120.126 47.6978 120.126C46.9698 120.126 46.3164 119.963 45.7378 119.636C45.1684 119.309 44.7204 118.847 44.3938 118.25C44.0671 117.643 43.9038 116.943 43.9038 116.15C43.9038 115.357 44.0624 114.661 44.3798 114.064C44.6971 113.467 45.1404 113.009 45.7098 112.692C46.2884 112.365 46.9511 112.202 47.6978 112.202C48.4258 112.202 49.0698 112.361 49.6298 112.678C50.1898 112.995 50.6191 113.434 50.9178 113.994C51.2258 114.545 51.3798 115.17 51.3798 115.87ZM50.0638 115.604C50.0638 115.119 49.9564 114.703 49.7418 114.358C49.5271 114.003 49.2331 113.737 48.8598 113.56C48.4958 113.373 48.0898 113.28 47.6418 113.28C46.9978 113.28 46.4471 113.485 45.9898 113.896C45.5418 114.307 45.2851 114.876 45.2198 115.604H50.0638ZM62.2874 112.188C62.8847 112.188 63.4167 112.314 63.8834 112.566C64.3501 112.809 64.7187 113.177 64.9894 113.672C65.2601 114.167 65.3954 114.769 65.3954 115.478V120H64.1354V115.66C64.1354 114.895 63.9441 114.311 63.5614 113.91C63.1881 113.499 62.6794 113.294 62.0354 113.294C61.3727 113.294 60.8454 113.509 60.4534 113.938C60.0614 114.358 59.8654 114.969 59.8654 115.772V120H58.6054V115.66C58.6054 114.895 58.4141 114.311 58.0314 113.91C57.6581 113.499 57.1494 113.294 56.5054 113.294C55.8427 113.294 55.3154 113.509 54.9234 113.938C54.5314 114.358 54.3354 114.969 54.3354 115.772V120H53.0614V112.328H54.3354V113.434C54.5874 113.033 54.9234 112.725 55.3434 112.51C55.7727 112.295 56.2441 112.188 56.7574 112.188C57.4014 112.188 57.9707 112.333 58.4654 112.622C58.9601 112.911 59.3287 113.336 59.5714 113.896C59.7861 113.355 60.1407 112.935 60.6354 112.636C61.1301 112.337 61.6807 112.188 62.2874 112.188ZM70.8312 120.126C70.1126 120.126 69.4592 119.963 68.8712 119.636C68.2926 119.309 67.8352 118.847 67.4992 118.25C67.1726 117.643 67.0092 116.943 67.0092 116.15C67.0092 115.366 67.1772 114.675 67.5132 114.078C67.8586 113.471 68.3252 113.009 68.9132 112.692C69.5012 112.365 70.1592 112.202 70.8872 112.202C71.6152 112.202 72.2732 112.365 72.8612 112.692C73.4492 113.009 73.9112 113.467 74.2472 114.064C74.5926 114.661 74.7652 115.357 74.7652 116.15C74.7652 116.943 74.5879 117.643 74.2332 118.25C73.8879 118.847 73.4166 119.309 72.8192 119.636C72.2219 119.963 71.5592 120.126 70.8312 120.126ZM70.8312 119.006C71.2886 119.006 71.7179 118.899 72.1192 118.684C72.5206 118.469 72.8426 118.147 73.0852 117.718C73.3372 117.289 73.4632 116.766 73.4632 116.15C73.4632 115.534 73.3419 115.011 73.0992 114.582C72.8566 114.153 72.5392 113.835 72.1472 113.63C71.7552 113.415 71.3306 113.308 70.8732 113.308C70.4066 113.308 69.9772 113.415 69.5852 113.63C69.2026 113.835 68.8946 114.153 68.6612 114.582C68.4279 115.011 68.3112 115.534 68.3112 116.15C68.3112 116.775 68.4232 117.303 68.6472 117.732C68.8806 118.161 69.1886 118.483 69.5712 118.698C69.9539 118.903 70.3739 119.006 70.8312 119.006ZM85.6887 110.242V111.278H81.4467V114.568H84.8907V115.604H81.4467V120H80.1727V110.242H85.6887ZM87.8854 111.082C87.6427 111.082 87.4374 110.998 87.2694 110.83C87.1014 110.662 87.0174 110.457 87.0174 110.214C87.0174 109.971 87.1014 109.766 87.2694 109.598C87.4374 109.43 87.6427 109.346 87.8854 109.346C88.1187 109.346 88.3147 109.43 88.4734 109.598C88.6414 109.766 88.7254 109.971 88.7254 110.214C88.7254 110.457 88.6414 110.662 88.4734 110.83C88.3147 110.998 88.1187 111.082 87.8854 111.082ZM88.5014 112.328V120H87.2274V112.328H88.5014ZM91.9467 109.64V120H90.6727V109.64H91.9467ZM101.118 115.87C101.118 116.113 101.104 116.369 101.076 116.64H94.944C94.9907 117.396 95.2474 117.989 95.714 118.418C96.19 118.838 96.764 119.048 97.436 119.048C97.9867 119.048 98.444 118.922 98.808 118.67C99.1814 118.409 99.4427 118.063 99.592 117.634H100.964C100.759 118.371 100.348 118.973 99.732 119.44C99.116 119.897 98.3507 120.126 97.436 120.126C96.708 120.126 96.0547 119.963 95.476 119.636C94.9067 119.309 94.4587 118.847 94.132 118.25C93.8054 117.643 93.642 116.943 93.642 116.15C93.642 115.357 93.8007 114.661 94.118 114.064C94.4354 113.467 94.8787 113.009 95.448 112.692C96.0267 112.365 96.6894 112.202 97.436 112.202C98.164 112.202 98.808 112.361 99.368 112.678C99.928 112.995 100.357 113.434 100.656 113.994C100.964 114.545 101.118 115.17 101.118 115.87ZM99.802 115.604C99.802 115.119 99.6947 114.703 99.48 114.358C99.2654 114.003 98.9714 113.737 98.598 113.56C98.234 113.373 97.828 113.28 97.38 113.28C96.736 113.28 96.1854 113.485 95.728 113.896C95.28 114.307 95.0234 114.876 94.958 115.604H99.802ZM117.937 120H116.663L111.539 112.23V120H110.265V110.228H111.539L116.663 117.984V110.228H117.937V120ZM119.632 116.136C119.632 115.352 119.791 114.666 120.108 114.078C120.426 113.481 120.86 113.019 121.41 112.692C121.97 112.365 122.591 112.202 123.272 112.202C123.944 112.202 124.528 112.347 125.022 112.636C125.517 112.925 125.886 113.289 126.128 113.728V112.328H127.416V120H126.128V118.572C125.876 119.02 125.498 119.393 124.994 119.692C124.5 119.981 123.921 120.126 123.258 120.126C122.577 120.126 121.961 119.958 121.41 119.622C120.86 119.286 120.426 118.815 120.108 118.208C119.791 117.601 119.632 116.911 119.632 116.136ZM126.128 116.15C126.128 115.571 126.012 115.067 125.778 114.638C125.545 114.209 125.228 113.882 124.826 113.658C124.434 113.425 124 113.308 123.524 113.308C123.048 113.308 122.614 113.42 122.222 113.644C121.83 113.868 121.518 114.195 121.284 114.624C121.051 115.053 120.934 115.557 120.934 116.136C120.934 116.724 121.051 117.237 121.284 117.676C121.518 118.105 121.83 118.437 122.222 118.67C122.614 118.894 123.048 119.006 123.524 119.006C124 119.006 124.434 118.894 124.826 118.67C125.228 118.437 125.545 118.105 125.778 117.676C126.012 117.237 126.128 116.729 126.128 116.15ZM138.795 112.188C139.393 112.188 139.925 112.314 140.391 112.566C140.858 112.809 141.227 113.177 141.497 113.672C141.768 114.167 141.903 114.769 141.903 115.478V120H140.643V115.66C140.643 114.895 140.452 114.311 140.069 113.91C139.696 113.499 139.187 113.294 138.543 113.294C137.881 113.294 137.353 113.509 136.961 113.938C136.569 114.358 136.373 114.969 136.373 115.772V120H135.113V115.66C135.113 114.895 134.922 114.311 134.539 113.91C134.166 113.499 133.657 113.294 133.013 113.294C132.351 113.294 131.823 113.509 131.431 113.938C131.039 114.358 130.843 114.969 130.843 115.772V120H129.569V112.328H130.843V113.434C131.095 113.033 131.431 112.725 131.851 112.51C132.281 112.295 132.752 112.188 133.265 112.188C133.909 112.188 134.479 112.333 134.973 112.622C135.468 112.911 135.837 113.336 136.079 113.896C136.294 113.355 136.649 112.935 137.143 112.636C137.638 112.337 138.189 112.188 138.795 112.188ZM150.993 115.87C150.993 116.113 150.979 116.369 150.951 116.64H144.819C144.866 117.396 145.122 117.989 145.589 118.418C146.065 118.838 146.639 119.048 147.311 119.048C147.862 119.048 148.319 118.922 148.683 118.67C149.056 118.409 149.318 118.063 149.467 117.634H150.839C150.634 118.371 150.223 118.973 149.607 119.44C148.991 119.897 148.226 120.126 147.311 120.126C146.583 120.126 145.93 119.963 145.351 119.636C144.782 119.309 144.334 118.847 144.007 118.25C143.68 117.643 143.517 116.943 143.517 116.15C143.517 115.357 143.676 114.661 143.993 114.064C144.31 113.467 144.754 113.009 145.323 112.692C145.902 112.365 146.564 112.202 147.311 112.202C148.039 112.202 148.683 112.361 149.243 112.678C149.803 112.995 150.232 113.434 150.531 113.994C150.839 114.545 150.993 115.17 150.993 115.87ZM149.677 115.604C149.677 115.119 149.57 114.703 149.355 114.358C149.14 114.003 148.846 113.737 148.473 113.56C148.109 113.373 147.703 113.28 147.255 113.28C146.611 113.28 146.06 113.485 145.603 113.896C145.155 114.307 144.898 114.876 144.833 115.604H149.677Z" fill="#505050"/>
<path d="M33.4033 121.4H151.595V122.1H33.4033V121.4Z" fill="#505050"/>
<path d="M40.5193 165.242C41.5833 165.242 42.5027 165.443 43.2773 165.844C44.0613 166.236 44.6587 166.801 45.0693 167.538C45.4893 168.275 45.6993 169.143 45.6993 170.142C45.6993 171.141 45.4893 172.009 45.0693 172.746C44.6587 173.474 44.0613 174.034 43.2773 174.426C42.5027 174.809 41.5833 175 40.5193 175H37.4813V165.242H40.5193ZM40.5193 173.95C41.7793 173.95 42.7407 173.619 43.4033 172.956C44.066 172.284 44.3973 171.346 44.3973 170.142C44.3973 168.929 44.0613 167.981 43.3893 167.3C42.7267 166.619 41.77 166.278 40.5193 166.278H38.7553V173.95H40.5193ZM54.3798 170.87C54.3798 171.113 54.3658 171.369 54.3378 171.64H48.2058C48.2524 172.396 48.5091 172.989 48.9758 173.418C49.4518 173.838 50.0258 174.048 50.6978 174.048C51.2484 174.048 51.7058 173.922 52.0698 173.67C52.4431 173.409 52.7044 173.063 52.8538 172.634H54.2258C54.0204 173.371 53.6098 173.973 52.9938 174.44C52.3778 174.897 51.6124 175.126 50.6978 175.126C49.9698 175.126 49.3164 174.963 48.7378 174.636C48.1684 174.309 47.7204 173.847 47.3938 173.25C47.0671 172.643 46.9038 171.943 46.9038 171.15C46.9038 170.357 47.0624 169.661 47.3798 169.064C47.6971 168.467 48.1404 168.009 48.7098 167.692C49.2884 167.365 49.9511 167.202 50.6978 167.202C51.4258 167.202 52.0698 167.361 52.6298 167.678C53.1898 167.995 53.6191 168.434 53.9178 168.994C54.2258 169.545 54.3798 170.17 54.3798 170.87ZM53.0638 170.604C53.0638 170.119 52.9564 169.703 52.7418 169.358C52.5271 169.003 52.2331 168.737 51.8598 168.56C51.4958 168.373 51.0898 168.28 50.6418 168.28C49.9978 168.28 49.4471 168.485 48.9898 168.896C48.5418 169.307 48.2851 169.876 48.2198 170.604H53.0638ZM65.2874 167.188C65.8847 167.188 66.4167 167.314 66.8834 167.566C67.3501 167.809 67.7187 168.177 67.9894 168.672C68.2601 169.167 68.3954 169.769 68.3954 170.478V175H67.1354V170.66C67.1354 169.895 66.9441 169.311 66.5614 168.91C66.1881 168.499 65.6794 168.294 65.0354 168.294C64.3727 168.294 63.8454 168.509 63.4534 168.938C63.0614 169.358 62.8654 169.969 62.8654 170.772V175H61.6054V170.66C61.6054 169.895 61.4141 169.311 61.0314 168.91C60.6581 168.499 60.1494 168.294 59.5054 168.294C58.8427 168.294 58.3154 168.509 57.9234 168.938C57.5314 169.358 57.3354 169.969 57.3354 170.772V175H56.0614V167.328H57.3354V168.434C57.5874 168.033 57.9234 167.725 58.3434 167.51C58.7727 167.295 59.2441 167.188 59.7574 167.188C60.4014 167.188 60.9707 167.333 61.4654 167.622C61.9601 167.911 62.3287 168.336 62.5714 168.896C62.7861 168.355 63.1407 167.935 63.6354 167.636C64.1301 167.337 64.6807 167.188 65.2874 167.188ZM73.8312 175.126C73.1126 175.126 72.4592 174.963 71.8712 174.636C71.2926 174.309 70.8352 173.847 70.4992 173.25C70.1726 172.643 70.0092 171.943 70.0092 171.15C70.0092 170.366 70.1772 169.675 70.5132 169.078C70.8586 168.471 71.3252 168.009 71.9132 167.692C72.5012 167.365 73.1592 167.202 73.8872 167.202C74.6152 167.202 75.2732 167.365 75.8612 167.692C76.4492 168.009 76.9112 168.467 77.2472 169.064C77.5926 169.661 77.7652 170.357 77.7652 171.15C77.7652 171.943 77.5879 172.643 77.2332 173.25C76.8879 173.847 76.4166 174.309 75.8192 174.636C75.2219 174.963 74.5592 175.126 73.8312 175.126ZM73.8312 174.006C74.2886 174.006 74.7179 173.899 75.1192 173.684C75.5206 173.469 75.8426 173.147 76.0852 172.718C76.3372 172.289 76.4632 171.766 76.4632 171.15C76.4632 170.534 76.3419 170.011 76.0992 169.582C75.8566 169.153 75.5392 168.835 75.1472 168.63C74.7552 168.415 74.3306 168.308 73.8732 168.308C73.4066 168.308 72.9772 168.415 72.5852 168.63C72.2026 168.835 71.8946 169.153 71.6612 169.582C71.4279 170.011 71.3112 170.534 71.3112 171.15C71.3112 171.775 71.4232 172.303 71.6472 172.732C71.8806 173.161 72.1886 173.483 72.5712 173.698C72.9539 173.903 73.3739 174.006 73.8312 174.006ZM88.6887 165.242V166.278H84.4467V169.568H87.8907V170.604H84.4467V175H83.1727V165.242H88.6887ZM90.8854 166.082C90.6427 166.082 90.4374 165.998 90.2694 165.83C90.1014 165.662 90.0174 165.457 90.0174 165.214C90.0174 164.971 90.1014 164.766 90.2694 164.598C90.4374 164.43 90.6427 164.346 90.8854 164.346C91.1187 164.346 91.3147 164.43 91.4734 164.598C91.6414 164.766 91.7254 164.971 91.7254 165.214C91.7254 165.457 91.6414 165.662 91.4734 165.83C91.3147 165.998 91.1187 166.082 90.8854 166.082ZM91.5014 167.328V175H90.2274V167.328H91.5014ZM94.9467 164.64V175H93.6727V164.64H94.9467ZM104.118 170.87C104.118 171.113 104.104 171.369 104.076 171.64H97.944C97.9907 172.396 98.2474 172.989 98.714 173.418C99.19 173.838 99.764 174.048 100.436 174.048C100.987 174.048 101.444 173.922 101.808 173.67C102.181 173.409 102.443 173.063 102.592 172.634H103.964C103.759 173.371 103.348 173.973 102.732 174.44C102.116 174.897 101.351 175.126 100.436 175.126C99.708 175.126 99.0547 174.963 98.476 174.636C97.9067 174.309 97.4587 173.847 97.132 173.25C96.8054 172.643 96.642 171.943 96.642 171.15C96.642 170.357 96.8007 169.661 97.118 169.064C97.4354 168.467 97.8787 168.009 98.448 167.692C99.0267 167.365 99.6894 167.202 100.436 167.202C101.164 167.202 101.808 167.361 102.368 167.678C102.928 167.995 103.357 168.434 103.656 168.994C103.964 169.545 104.118 170.17 104.118 170.87ZM102.802 170.604C102.802 170.119 102.695 169.703 102.48 169.358C102.265 169.003 101.971 168.737 101.598 168.56C101.234 168.373 100.828 168.28 100.38 168.28C99.736 168.28 99.1854 168.485 98.728 168.896C98.28 169.307 98.0234 169.876 97.958 170.604H102.802ZM120.937 175H119.663L114.539 167.23V175H113.265V165.228H114.539L119.663 172.984V165.228H120.937V175ZM122.632 171.136C122.632 170.352 122.791 169.666 123.108 169.078C123.426 168.481 123.86 168.019 124.41 167.692C124.97 167.365 125.591 167.202 126.272 167.202C126.944 167.202 127.528 167.347 128.022 167.636C128.517 167.925 128.886 168.289 129.128 168.728V167.328H130.416V175H129.128V173.572C128.876 174.02 128.498 174.393 127.994 174.692C127.5 174.981 126.921 175.126 126.258 175.126C125.577 175.126 124.961 174.958 124.41 174.622C123.86 174.286 123.426 173.815 123.108 173.208C122.791 172.601 122.632 171.911 122.632 171.136ZM129.128 171.15C129.128 170.571 129.012 170.067 128.778 169.638C128.545 169.209 128.228 168.882 127.826 168.658C127.434 168.425 127 168.308 126.524 168.308C126.048 168.308 125.614 168.42 125.222 168.644C124.83 168.868 124.518 169.195 124.284 169.624C124.051 170.053 123.934 170.557 123.934 171.136C123.934 171.724 124.051 172.237 124.284 172.676C124.518 173.105 124.83 173.437 125.222 173.67C125.614 173.894 126.048 174.006 126.524 174.006C127 174.006 127.434 173.894 127.826 173.67C128.228 173.437 128.545 173.105 128.778 172.676C129.012 172.237 129.128 171.729 129.128 171.15ZM141.795 167.188C142.393 167.188 142.925 167.314 143.391 167.566C143.858 167.809 144.227 168.177 144.497 168.672C144.768 169.167 144.903 169.769 144.903 170.478V175H143.643V170.66C143.643 169.895 143.452 169.311 143.069 168.91C142.696 168.499 142.187 168.294 141.543 168.294C140.881 168.294 140.353 168.509 139.961 168.938C139.569 169.358 139.373 169.969 139.373 170.772V175H138.113V170.66C138.113 169.895 137.922 169.311 137.539 168.91C137.166 168.499 136.657 168.294 136.013 168.294C135.351 168.294 134.823 168.509 134.431 168.938C134.039 169.358 133.843 169.969 133.843 170.772V175H132.569V167.328H133.843V168.434C134.095 168.033 134.431 167.725 134.851 167.51C135.281 167.295 135.752 167.188 136.265 167.188C136.909 167.188 137.479 167.333 137.973 167.622C138.468 167.911 138.837 168.336 139.079 168.896C139.294 168.355 139.649 167.935 140.143 167.636C140.638 167.337 141.189 167.188 141.795 167.188ZM153.993 170.87C153.993 171.113 153.979 171.369 153.951 171.64H147.819C147.866 172.396 148.122 172.989 148.589 173.418C149.065 173.838 149.639 174.048 150.311 174.048C150.862 174.048 151.319 173.922 151.683 173.67C152.056 173.409 152.318 173.063 152.467 172.634H153.839C153.634 173.371 153.223 173.973 152.607 174.44C151.991 174.897 151.226 175.126 150.311 175.126C149.583 175.126 148.93 174.963 148.351 174.636C147.782 174.309 147.334 173.847 147.007 173.25C146.68 172.643 146.517 171.943 146.517 171.15C146.517 170.357 146.676 169.661 146.993 169.064C147.31 168.467 147.754 168.009 148.323 167.692C148.902 167.365 149.564 167.202 150.311 167.202C151.039 167.202 151.683 167.361 152.243 167.678C152.803 167.995 153.232 168.434 153.531 168.994C153.839 169.545 153.993 170.17 153.993 170.87ZM152.677 170.604C152.677 170.119 152.57 169.703 152.355 169.358C152.14 169.003 151.846 168.737 151.473 168.56C151.109 168.373 150.703 168.28 150.255 168.28C149.611 168.28 149.06 168.485 148.603 168.896C148.155 169.307 147.898 169.876 147.833 170.604H152.677Z" fill="#505050"/>
<path d="M36.4033 176.4H154.595V177.1H36.4033V176.4Z" fill="#505050"/>
<path d="M37.3855 227.242C38.4495 227.242 39.3689 227.443 40.1435 227.844C40.9275 228.236 41.5249 228.801 41.9355 229.538C42.3555 230.275 42.5655 231.143 42.5655 232.142C42.5655 233.141 42.3555 234.009 41.9355 234.746C41.5249 235.474 40.9275 236.034 40.1435 236.426C39.3689 236.809 38.4495 237 37.3855 237H34.3475V227.242H37.3855ZM37.3855 235.95C38.6455 235.95 39.6069 235.619 40.2695 234.956C40.9322 234.284 41.2635 233.346 41.2635 232.142C41.2635 230.929 40.9275 229.981 40.2555 229.3C39.5929 228.619 38.6362 228.278 37.3855 228.278H35.6215V235.95H37.3855ZM51.246 232.87C51.246 233.113 51.232 233.369 51.204 233.64H45.072C45.1186 234.396 45.3753 234.989 45.842 235.418C46.318 235.838 46.892 236.048 47.564 236.048C48.1146 236.048 48.572 235.922 48.936 235.67C49.3093 235.409 49.5706 235.063 49.72 234.634H51.092C50.8866 235.371 50.476 235.973 49.86 236.44C49.244 236.897 48.4786 237.126 47.564 237.126C46.836 237.126 46.1826 236.963 45.604 236.636C45.0346 236.309 44.5866 235.847 44.26 235.25C43.9333 234.643 43.77 233.943 43.77 233.15C43.77 232.357 43.9286 231.661 44.246 231.064C44.5633 230.467 45.0066 230.009 45.576 229.692C46.1546 229.365 46.8173 229.202 47.564 229.202C48.292 229.202 48.936 229.361 49.496 229.678C50.056 229.995 50.4853 230.434 50.784 230.994C51.092 231.545 51.246 232.17 51.246 232.87ZM49.93 232.604C49.93 232.119 49.8226 231.703 49.608 231.358C49.3933 231.003 49.0993 230.737 48.726 230.56C48.362 230.373 47.956 230.28 47.508 230.28C46.864 230.28 46.3133 230.485 45.856 230.896C45.408 231.307 45.1513 231.876 45.086 232.604H49.93ZM62.1536 229.188C62.7509 229.188 63.2829 229.314 63.7496 229.566C64.2163 229.809 64.5849 230.177 64.8556 230.672C65.1263 231.167 65.2616 231.769 65.2616 232.478V237H64.0016V232.66C64.0016 231.895 63.8103 231.311 63.4276 230.91C63.0543 230.499 62.5456 230.294 61.9016 230.294C61.2389 230.294 60.7116 230.509 60.3196 230.938C59.9276 231.358 59.7316 231.969 59.7316 232.772V237H58.4716V232.66C58.4716 231.895 58.2803 231.311 57.8976 230.91C57.5243 230.499 57.0156 230.294 56.3716 230.294C55.7089 230.294 55.1816 230.509 54.7896 230.938C54.3976 231.358 54.2016 231.969 54.2016 232.772V237H52.9276V229.328H54.2016V230.434C54.4536 230.033 54.7896 229.725 55.2096 229.51C55.6389 229.295 56.1103 229.188 56.6236 229.188C57.2676 229.188 57.8369 229.333 58.3316 229.622C58.8263 229.911 59.1949 230.336 59.4376 230.896C59.6523 230.355 60.0069 229.935 60.5016 229.636C60.9963 229.337 61.5469 229.188 62.1536 229.188ZM70.6974 237.126C69.9788 237.126 69.3254 236.963 68.7374 236.636C68.1588 236.309 67.7014 235.847 67.3654 235.25C67.0388 234.643 66.8754 233.943 66.8754 233.15C66.8754 232.366 67.0434 231.675 67.3794 231.078C67.7248 230.471 68.1914 230.009 68.7794 229.692C69.3674 229.365 70.0254 229.202 70.7534 229.202C71.4814 229.202 72.1394 229.365 72.7274 229.692C73.3154 230.009 73.7774 230.467 74.1134 231.064C74.4588 231.661 74.6314 232.357 74.6314 233.15C74.6314 233.943 74.4541 234.643 74.0994 235.25C73.7541 235.847 73.2828 236.309 72.6854 236.636C72.0881 236.963 71.4254 237.126 70.6974 237.126ZM70.6974 236.006C71.1548 236.006 71.5841 235.899 71.9854 235.684C72.3868 235.469 72.7088 235.147 72.9514 234.718C73.2034 234.289 73.3294 233.766 73.3294 233.15C73.3294 232.534 73.2081 232.011 72.9654 231.582C72.7228 231.153 72.4054 230.835 72.0134 230.63C71.6214 230.415 71.1968 230.308 70.7394 230.308C70.2728 230.308 69.8434 230.415 69.4514 230.63C69.0688 230.835 68.7608 231.153 68.5274 231.582C68.2941 232.011 68.1774 232.534 68.1774 233.15C68.1774 233.775 68.2894 234.303 68.5134 234.732C68.7468 235.161 69.0548 235.483 69.4374 235.698C69.8201 235.903 70.2401 236.006 70.6974 236.006ZM85.5549 227.242V228.278H81.3129V231.568H84.7569V232.604H81.3129V237H80.0389V227.242H85.5549ZM87.7516 228.082C87.509 228.082 87.3036 227.998 87.1356 227.83C86.9676 227.662 86.8836 227.457 86.8836 227.214C86.8836 226.971 86.9676 226.766 87.1356 226.598C87.3036 226.43 87.509 226.346 87.7516 226.346C87.985 226.346 88.181 226.43 88.3396 226.598C88.5076 226.766 88.5916 226.971 88.5916 227.214C88.5916 227.457 88.5076 227.662 88.3396 227.83C88.181 227.998 87.985 228.082 87.7516 228.082ZM88.3676 229.328V237H87.0936V229.328H88.3676ZM91.8129 226.64V237H90.5389V226.64H91.8129ZM100.984 232.87C100.984 233.113 100.97 233.369 100.942 233.64H94.8103C94.8569 234.396 95.1136 234.989 95.5803 235.418C96.0563 235.838 96.6303 236.048 97.3023 236.048C97.8529 236.048 98.3103 235.922 98.6743 235.67C99.0476 235.409 99.3089 235.063 99.4583 234.634H100.83C100.625 235.371 100.214 235.973 99.5983 236.44C98.9823 236.897 98.2169 237.126 97.3023 237.126C96.5743 237.126 95.9209 236.963 95.3423 236.636C94.7729 236.309 94.3249 235.847 93.9983 235.25C93.6716 234.643 93.5083 233.943 93.5083 233.15C93.5083 232.357 93.6669 231.661 93.9843 231.064C94.3016 230.467 94.7449 230.009 95.3143 229.692C95.8929 229.365 96.5556 229.202 97.3023 229.202C98.0303 229.202 98.6743 229.361 99.2343 229.678C99.7943 229.995 100.224 230.434 100.522 230.994C100.83 231.545 100.984 232.17 100.984 232.87ZM99.6683 232.604C99.6683 232.119 99.5609 231.703 99.3463 231.358C99.1316 231.003 98.8376 230.737 98.4643 230.56C98.1003 230.373 97.6943 230.28 97.2463 230.28C96.6023 230.28 96.0516 230.485 95.5943 230.896C95.1463 231.307 94.8896 231.876 94.8243 232.604H99.6683ZM114.07 237H112.796L107.672 229.23V237H106.398V227.228H107.672L112.796 234.984V227.228H114.07V237ZM115.766 233.136C115.766 232.352 115.925 231.666 116.242 231.078C116.559 230.481 116.993 230.019 117.544 229.692C118.104 229.365 118.725 229.202 119.406 229.202C120.078 229.202 120.661 229.347 121.156 229.636C121.651 229.925 122.019 230.289 122.262 230.728V229.328H123.55V237H122.262V235.572C122.01 236.02 121.632 236.393 121.128 236.692C120.633 236.981 120.055 237.126 119.392 237.126C118.711 237.126 118.095 236.958 117.544 236.622C116.993 236.286 116.559 235.815 116.242 235.208C115.925 234.601 115.766 233.911 115.766 233.136ZM122.262 233.15C122.262 232.571 122.145 232.067 121.912 231.638C121.679 231.209 121.361 230.882 120.96 230.658C120.568 230.425 120.134 230.308 119.658 230.308C119.182 230.308 118.748 230.42 118.356 230.644C117.964 230.868 117.651 231.195 117.418 231.624C117.185 232.053 117.068 232.557 117.068 233.136C117.068 233.724 117.185 234.237 117.418 234.676C117.651 235.105 117.964 235.437 118.356 235.67C118.748 235.894 119.182 236.006 119.658 236.006C120.134 236.006 120.568 235.894 120.96 235.67C121.361 235.437 121.679 235.105 121.912 234.676C122.145 234.237 122.262 233.729 122.262 233.15ZM134.929 229.188C135.526 229.188 136.058 229.314 136.525 229.566C136.992 229.809 137.36 230.177 137.631 230.672C137.902 231.167 138.037 231.769 138.037 232.478V237H136.777V232.66C136.777 231.895 136.586 231.311 136.203 230.91C135.83 230.499 135.321 230.294 134.677 230.294C134.014 230.294 133.487 230.509 133.095 230.938C132.703 231.358 132.507 231.969 132.507 232.772V237H131.247V232.66C131.247 231.895 131.056 231.311 130.673 230.91C130.3 230.499 129.791 230.294 129.147 230.294C128.484 230.294 127.957 230.509 127.565 230.938C127.173 231.358 126.977 231.969 126.977 232.772V237H125.703V229.328H126.977V230.434C127.229 230.033 127.565 229.725 127.985 229.51C128.414 229.295 128.886 229.188 129.399 229.188C130.043 229.188 130.612 229.333 131.107 229.622C131.602 229.911 131.97 230.336 132.213 230.896C132.428 230.355 132.782 229.935 133.277 229.636C133.772 229.337 134.322 229.188 134.929 229.188ZM147.127 232.87C147.127 233.113 147.113 233.369 147.085 233.64H140.953C140.999 234.396 141.256 234.989 141.723 235.418C142.199 235.838 142.773 236.048 143.445 236.048C143.995 236.048 144.453 235.922 144.817 235.67C145.19 235.409 145.451 235.063 145.601 234.634H146.973C146.767 235.371 146.357 235.973 145.741 236.44C145.125 236.897 144.359 237.126 143.445 237.126C142.717 237.126 142.063 236.963 141.485 236.636C140.915 236.309 140.467 235.847 140.141 235.25C139.814 234.643 139.651 233.943 139.651 233.15C139.651 232.357 139.809 231.661 140.127 231.064C140.444 230.467 140.887 230.009 141.457 229.692C142.035 229.365 142.698 229.202 143.445 229.202C144.173 229.202 144.817 229.361 145.377 229.678C145.937 229.995 146.366 230.434 146.665 230.994C146.973 231.545 147.127 232.17 147.127 232.87ZM145.811 232.604C145.811 232.119 145.703 231.703 145.489 231.358C145.274 231.003 144.98 230.737 144.607 230.56C144.243 230.373 143.837 230.28 143.389 230.28C142.745 230.28 142.194 230.485 141.737 230.896C141.289 231.307 141.032 231.876 140.967 232.604H145.811Z" fill="#505050"/>
<path d="M33.2695 238.4H147.729V239.1H33.2695V238.4Z" fill="#505050"/>
<path d="M36.243 283.242C37.307 283.242 38.2263 283.443 39.001 283.844C39.785 284.236 40.3823 284.801 40.793 285.538C41.213 286.275 41.423 287.143 41.423 288.142C41.423 289.141 41.213 290.009 40.793 290.746C40.3823 291.474 39.785 292.034 39.001 292.426C38.2263 292.809 37.307 293 36.243 293H33.205V283.242H36.243ZM36.243 291.95C37.503 291.95 38.4643 291.619 39.127 290.956C39.7896 290.284 40.121 289.346 40.121 288.142C40.121 286.929 39.785 285.981 39.113 285.3C38.4503 284.619 37.4936 284.278 36.243 284.278H34.479V291.95H36.243ZM50.1034 288.87C50.1034 289.113 50.0894 289.369 50.0614 289.64H43.9294C43.9761 290.396 44.2327 290.989 44.6994 291.418C45.1754 291.838 45.7494 292.048 46.4214 292.048C46.9721 292.048 47.4294 291.922 47.7934 291.67C48.1667 291.409 48.4281 291.063 48.5774 290.634H49.9494C49.7441 291.371 49.3334 291.973 48.7174 292.44C48.1014 292.897 47.3361 293.126 46.4214 293.126C45.6934 293.126 45.0401 292.963 44.4614 292.636C43.8921 292.309 43.4441 291.847 43.1174 291.25C42.7907 290.643 42.6274 289.943 42.6274 289.15C42.6274 288.357 42.7861 287.661 43.1034 287.064C43.4207 286.467 43.8641 286.009 44.4334 285.692C45.0121 285.365 45.6747 285.202 46.4214 285.202C47.1494 285.202 47.7934 285.361 48.3534 285.678C48.9134 285.995 49.3427 286.434 49.6414 286.994C49.9494 287.545 50.1034 288.17 50.1034 288.87ZM48.7874 288.604C48.7874 288.119 48.6801 287.703 48.4654 287.358C48.2507 287.003 47.9567 286.737 47.5834 286.56C47.2194 286.373 46.8134 286.28 46.3654 286.28C45.7214 286.28 45.1707 286.485 44.7134 286.896C44.2654 287.307 44.0087 287.876 43.9434 288.604H48.7874ZM61.011 285.188C61.6084 285.188 62.1404 285.314 62.607 285.566C63.0737 285.809 63.4424 286.177 63.713 286.672C63.9837 287.167 64.119 287.769 64.119 288.478V293H62.859V288.66C62.859 287.895 62.6677 287.311 62.285 286.91C61.9117 286.499 61.403 286.294 60.759 286.294C60.0964 286.294 59.569 286.509 59.177 286.938C58.785 287.358 58.589 287.969 58.589 288.772V293H57.329V288.66C57.329 287.895 57.1377 287.311 56.755 286.91C56.3817 286.499 55.873 286.294 55.229 286.294C54.5664 286.294 54.039 286.509 53.647 286.938C53.255 287.358 53.059 287.969 53.059 288.772V293H51.785V285.328H53.059V286.434C53.311 286.033 53.647 285.725 54.067 285.51C54.4964 285.295 54.9677 285.188 55.481 285.188C56.125 285.188 56.6944 285.333 57.189 285.622C57.6837 285.911 58.0524 286.336 58.295 286.896C58.5097 286.355 58.8644 285.935 59.359 285.636C59.8537 285.337 60.4044 285.188 61.011 285.188ZM69.5549 293.126C68.8362 293.126 68.1829 292.963 67.5949 292.636C67.0162 292.309 66.5589 291.847 66.2229 291.25C65.8962 290.643 65.7329 289.943 65.7329 289.15C65.7329 288.366 65.9009 287.675 66.2369 287.078C66.5822 286.471 67.0489 286.009 67.6369 285.692C68.2249 285.365 68.8829 285.202 69.6109 285.202C70.3389 285.202 70.9969 285.365 71.5849 285.692C72.1729 286.009 72.6349 286.467 72.9709 287.064C73.3162 287.661 73.4889 288.357 73.4889 289.15C73.4889 289.943 73.3115 290.643 72.9569 291.25C72.6115 291.847 72.1402 292.309 71.5429 292.636C70.9455 292.963 70.2829 293.126 69.5549 293.126ZM69.5549 292.006C70.0122 292.006 70.4415 291.899 70.8429 291.684C71.2442 291.469 71.5662 291.147 71.8089 290.718C72.0609 290.289 72.1869 289.766 72.1869 289.15C72.1869 288.534 72.0655 288.011 71.8229 287.582C71.5802 287.153 71.2629 286.835 70.8709 286.63C70.4789 286.415 70.0542 286.308 69.5969 286.308C69.1302 286.308 68.7009 286.415 68.3089 286.63C67.9262 286.835 67.6182 287.153 67.3849 287.582C67.1515 288.011 67.0349 288.534 67.0349 289.15C67.0349 289.775 67.1469 290.303 67.3709 290.732C67.6042 291.161 67.9122 291.483 68.2949 291.698C68.6775 291.903 69.0975 292.006 69.5549 292.006ZM82.0184 286.378H80.4084V293H79.1344V286.378H78.1404V285.328H79.1344V284.782C79.1344 283.923 79.3537 283.298 79.7924 282.906C80.2404 282.505 80.9544 282.304 81.9344 282.304V283.368C81.3744 283.368 80.9777 283.48 80.7444 283.704C80.5204 283.919 80.4084 284.278 80.4084 284.782V285.328H82.0184V286.378ZM84.1618 284.082C83.9191 284.082 83.7138 283.998 83.5458 283.83C83.3778 283.662 83.2938 283.457 83.2938 283.214C83.2938 282.971 83.3778 282.766 83.5458 282.598C83.7138 282.43 83.9191 282.346 84.1618 282.346C84.3951 282.346 84.5911 282.43 84.7498 282.598C84.9178 282.766 85.0018 282.971 85.0018 283.214C85.0018 283.457 84.9178 283.662 84.7498 283.83C84.5911 283.998 84.3951 284.082 84.1618 284.082ZM84.7778 285.328V293H83.5038V285.328H84.7778ZM88.2231 282.64V293H86.9491V282.64H88.2231ZM97.3944 288.87C97.3944 289.113 97.3804 289.369 97.3524 289.64H91.2204C91.2671 290.396 91.5237 290.989 91.9904 291.418C92.4664 291.838 93.0404 292.048 93.7124 292.048C94.2631 292.048 94.7204 291.922 95.0844 291.67C95.4577 291.409 95.7191 291.063 95.8684 290.634H97.2404C97.0351 291.371 96.6244 291.973 96.0084 292.44C95.3924 292.897 94.6271 293.126 93.7124 293.126C92.9844 293.126 92.3311 292.963 91.7524 292.636C91.1831 292.309 90.7351 291.847 90.4084 291.25C90.0817 290.643 89.9184 289.943 89.9184 289.15C89.9184 288.357 90.0771 287.661 90.3944 287.064C90.7117 286.467 91.1551 286.009 91.7244 285.692C92.3031 285.365 92.9657 285.202 93.7124 285.202C94.4404 285.202 95.0844 285.361 95.6444 285.678C96.2044 285.995 96.6337 286.434 96.9324 286.994C97.2404 287.545 97.3944 288.17 97.3944 288.87ZM96.0784 288.604C96.0784 288.119 95.9711 287.703 95.7564 287.358C95.5417 287.003 95.2477 286.737 94.8744 286.56C94.5104 286.373 94.1044 286.28 93.6564 286.28C93.0124 286.28 92.4617 286.485 92.0044 286.896C91.5564 287.307 91.2997 287.876 91.2344 288.604H96.0784ZM114.213 293H112.939L107.815 285.23V293H106.541V283.228H107.815L112.939 290.984V283.228H114.213V293ZM115.909 289.136C115.909 288.352 116.067 287.666 116.385 287.078C116.702 286.481 117.136 286.019 117.687 285.692C118.247 285.365 118.867 285.202 119.549 285.202C120.221 285.202 120.804 285.347 121.299 285.636C121.793 285.925 122.162 286.289 122.405 286.728V285.328H123.693V293H122.405V291.572C122.153 292.02 121.775 292.393 121.271 292.692C120.776 292.981 120.197 293.126 119.535 293.126C118.853 293.126 118.237 292.958 117.687 292.622C117.136 292.286 116.702 291.815 116.385 291.208C116.067 290.601 115.909 289.911 115.909 289.136ZM122.405 289.15C122.405 288.571 122.288 288.067 122.055 287.638C121.821 287.209 121.504 286.882 121.103 286.658C120.711 286.425 120.277 286.308 119.801 286.308C119.325 286.308 118.891 286.42 118.499 286.644C118.107 286.868 117.794 287.195 117.561 287.624C117.327 288.053 117.211 288.557 117.211 289.136C117.211 289.724 117.327 290.237 117.561 290.676C117.794 291.105 118.107 291.437 118.499 291.67C118.891 291.894 119.325 292.006 119.801 292.006C120.277 292.006 120.711 291.894 121.103 291.67C121.504 291.437 121.821 291.105 122.055 290.676C122.288 290.237 122.405 289.729 122.405 289.15ZM135.072 285.188C135.669 285.188 136.201 285.314 136.668 285.566C137.134 285.809 137.503 286.177 137.774 286.672C138.044 287.167 138.18 287.769 138.18 288.478V293H136.92V288.66C136.92 287.895 136.728 287.311 136.346 286.91C135.972 286.499 135.464 286.294 134.82 286.294C134.157 286.294 133.63 286.509 133.238 286.938C132.846 287.358 132.65 287.969 132.65 288.772V293H131.39V288.66C131.39 287.895 131.198 287.311 130.816 286.91C130.442 286.499 129.934 286.294 129.29 286.294C128.627 286.294 128.1 286.509 127.708 286.938C127.316 287.358 127.12 287.969 127.12 288.772V293H125.846V285.328H127.12V286.434C127.372 286.033 127.708 285.725 128.128 285.51C128.557 285.295 129.028 285.188 129.542 285.188C130.186 285.188 130.755 285.333 131.25 285.622C131.744 285.911 132.113 286.336 132.356 286.896C132.57 286.355 132.925 285.935 133.42 285.636C133.914 285.337 134.465 285.188 135.072 285.188ZM147.269 288.87C147.269 289.113 147.255 289.369 147.227 289.64H141.095C141.142 290.396 141.399 290.989 141.865 291.418C142.341 291.838 142.915 292.048 143.587 292.048C144.138 292.048 144.595 291.922 144.959 291.67C145.333 291.409 145.594 291.063 145.743 290.634H147.115C146.91 291.371 146.499 291.973 145.883 292.44C145.267 292.897 144.502 293.126 143.587 293.126C142.859 293.126 142.206 292.963 141.627 292.636C141.058 292.309 140.61 291.847 140.283 291.25C139.957 290.643 139.793 289.943 139.793 289.15C139.793 288.357 139.952 287.661 140.269 287.064C140.587 286.467 141.03 286.009 141.599 285.692C142.178 285.365 142.841 285.202 143.587 285.202C144.315 285.202 144.959 285.361 145.519 285.678C146.079 285.995 146.509 286.434 146.807 286.994C147.115 287.545 147.269 288.17 147.269 288.87ZM145.953 288.604C145.953 288.119 145.846 287.703 145.631 287.358C145.417 287.003 145.123 286.737 144.749 286.56C144.385 286.373 143.979 286.28 143.531 286.28C142.887 286.28 142.337 286.485 141.879 286.896C141.431 287.307 141.175 287.876 141.109 288.604H145.953Z" fill="#505050"/>
<path d="M32.127 294.4H147.871V295.1H32.127V294.4Z" fill="#505050"/>
<path d="M40.3855 338.242C41.4495 338.242 42.3689 338.443 43.1435 338.844C43.9275 339.236 44.5249 339.801 44.9355 340.538C45.3555 341.275 45.5655 342.143 45.5655 343.142C45.5655 344.141 45.3555 345.009 44.9355 345.746C44.5249 346.474 43.9275 347.034 43.1435 347.426C42.3689 347.809 41.4495 348 40.3855 348H37.3475V338.242H40.3855ZM40.3855 346.95C41.6455 346.95 42.6069 346.619 43.2695 345.956C43.9322 345.284 44.2635 344.346 44.2635 343.142C44.2635 341.929 43.9275 340.981 43.2555 340.3C42.5929 339.619 41.6362 339.278 40.3855 339.278H38.6215V346.95H40.3855ZM54.246 343.87C54.246 344.113 54.232 344.369 54.204 344.64H48.072C48.1186 345.396 48.3753 345.989 48.842 346.418C49.318 346.838 49.892 347.048 50.564 347.048C51.1146 347.048 51.572 346.922 51.936 346.67C52.3093 346.409 52.5706 346.063 52.72 345.634H54.092C53.8866 346.371 53.476 346.973 52.86 347.44C52.244 347.897 51.4786 348.126 50.564 348.126C49.836 348.126 49.1826 347.963 48.604 347.636C48.0346 347.309 47.5866 346.847 47.26 346.25C46.9333 345.643 46.77 344.943 46.77 344.15C46.77 343.357 46.9286 342.661 47.246 342.064C47.5633 341.467 48.0066 341.009 48.576 340.692C49.1546 340.365 49.8173 340.202 50.564 340.202C51.292 340.202 51.936 340.361 52.496 340.678C53.056 340.995 53.4853 341.434 53.784 341.994C54.092 342.545 54.246 343.17 54.246 343.87ZM52.93 343.604C52.93 343.119 52.8226 342.703 52.608 342.358C52.3933 342.003 52.0993 341.737 51.726 341.56C51.362 341.373 50.956 341.28 50.508 341.28C49.864 341.28 49.3133 341.485 48.856 341.896C48.408 342.307 48.1513 342.876 48.086 343.604H52.93ZM65.1536 340.188C65.7509 340.188 66.2829 340.314 66.7496 340.566C67.2163 340.809 67.5849 341.177 67.8556 341.672C68.1263 342.167 68.2616 342.769 68.2616 343.478V348H67.0016V343.66C67.0016 342.895 66.8103 342.311 66.4276 341.91C66.0543 341.499 65.5456 341.294 64.9016 341.294C64.2389 341.294 63.7116 341.509 63.3196 341.938C62.9276 342.358 62.7316 342.969 62.7316 343.772V348H61.4716V343.66C61.4716 342.895 61.2803 342.311 60.8976 341.91C60.5243 341.499 60.0156 341.294 59.3716 341.294C58.7089 341.294 58.1816 341.509 57.7896 341.938C57.3976 342.358 57.2016 342.969 57.2016 343.772V348H55.9276V340.328H57.2016V341.434C57.4536 341.033 57.7896 340.725 58.2096 340.51C58.6389 340.295 59.1103 340.188 59.6236 340.188C60.2676 340.188 60.8369 340.333 61.3316 340.622C61.8263 340.911 62.1949 341.336 62.4376 341.896C62.6523 341.355 63.0069 340.935 63.5016 340.636C63.9963 340.337 64.5469 340.188 65.1536 340.188ZM73.6974 348.126C72.9788 348.126 72.3254 347.963 71.7374 347.636C71.1588 347.309 70.7014 346.847 70.3654 346.25C70.0388 345.643 69.8754 344.943 69.8754 344.15C69.8754 343.366 70.0434 342.675 70.3794 342.078C70.7248 341.471 71.1914 341.009 71.7794 340.692C72.3674 340.365 73.0254 340.202 73.7534 340.202C74.4814 340.202 75.1394 340.365 75.7274 340.692C76.3154 341.009 76.7774 341.467 77.1134 342.064C77.4588 342.661 77.6314 343.357 77.6314 344.15C77.6314 344.943 77.4541 345.643 77.0994 346.25C76.7541 346.847 76.2828 347.309 75.6854 347.636C75.0881 347.963 74.4254 348.126 73.6974 348.126ZM73.6974 347.006C74.1548 347.006 74.5841 346.899 74.9854 346.684C75.3868 346.469 75.7088 346.147 75.9514 345.718C76.2034 345.289 76.3294 344.766 76.3294 344.15C76.3294 343.534 76.2081 343.011 75.9654 342.582C75.7228 342.153 75.4054 341.835 75.0134 341.63C74.6214 341.415 74.1968 341.308 73.7394 341.308C73.2728 341.308 72.8434 341.415 72.4514 341.63C72.0688 341.835 71.7608 342.153 71.5274 342.582C71.2941 343.011 71.1774 343.534 71.1774 344.15C71.1774 344.775 71.2894 345.303 71.5134 345.732C71.7468 346.161 72.0548 346.483 72.4374 346.698C72.8201 346.903 73.2401 347.006 73.6974 347.006ZM88.5549 338.242V339.278H84.3129V342.568H87.7569V343.604H84.3129V348H83.0389V338.242H88.5549ZM90.7516 339.082C90.509 339.082 90.3036 338.998 90.1356 338.83C89.9676 338.662 89.8836 338.457 89.8836 338.214C89.8836 337.971 89.9676 337.766 90.1356 337.598C90.3036 337.43 90.509 337.346 90.7516 337.346C90.985 337.346 91.181 337.43 91.3396 337.598C91.5076 337.766 91.5916 337.971 91.5916 338.214C91.5916 338.457 91.5076 338.662 91.3396 338.83C91.181 338.998 90.985 339.082 90.7516 339.082ZM91.3676 340.328V348H90.0936V340.328H91.3676ZM94.8129 337.64V348H93.5389V337.64H94.8129ZM103.984 343.87C103.984 344.113 103.97 344.369 103.942 344.64H97.8103C97.8569 345.396 98.1136 345.989 98.5803 346.418C99.0563 346.838 99.6303 347.048 100.302 347.048C100.853 347.048 101.31 346.922 101.674 346.67C102.048 346.409 102.309 346.063 102.458 345.634H103.83C103.625 346.371 103.214 346.973 102.598 347.44C101.982 347.897 101.217 348.126 100.302 348.126C99.5743 348.126 98.9209 347.963 98.3423 347.636C97.7729 347.309 97.3249 346.847 96.9983 346.25C96.6716 345.643 96.5083 344.943 96.5083 344.15C96.5083 343.357 96.6669 342.661 96.9843 342.064C97.3016 341.467 97.7449 341.009 98.3143 340.692C98.8929 340.365 99.5556 340.202 100.302 340.202C101.03 340.202 101.674 340.361 102.234 340.678C102.794 340.995 103.224 341.434 103.522 341.994C103.83 342.545 103.984 343.17 103.984 343.87ZM102.668 343.604C102.668 343.119 102.561 342.703 102.346 342.358C102.132 342.003 101.838 341.737 101.464 341.56C101.1 341.373 100.694 341.28 100.246 341.28C99.6023 341.28 99.0516 341.485 98.5943 341.896C98.1463 342.307 97.8896 342.876 97.8243 343.604H102.668ZM117.07 348H115.796L110.672 340.23V348H109.398V338.228H110.672L115.796 345.984V338.228H117.07V348ZM118.766 344.136C118.766 343.352 118.925 342.666 119.242 342.078C119.559 341.481 119.993 341.019 120.544 340.692C121.104 340.365 121.725 340.202 122.406 340.202C123.078 340.202 123.661 340.347 124.156 340.636C124.651 340.925 125.019 341.289 125.262 341.728V340.328H126.55V348H125.262V346.572C125.01 347.02 124.632 347.393 124.128 347.692C123.633 347.981 123.055 348.126 122.392 348.126C121.711 348.126 121.095 347.958 120.544 347.622C119.993 347.286 119.559 346.815 119.242 346.208C118.925 345.601 118.766 344.911 118.766 344.136ZM125.262 344.15C125.262 343.571 125.145 343.067 124.912 342.638C124.679 342.209 124.361 341.882 123.96 341.658C123.568 341.425 123.134 341.308 122.658 341.308C122.182 341.308 121.748 341.42 121.356 341.644C120.964 341.868 120.651 342.195 120.418 342.624C120.185 343.053 120.068 343.557 120.068 344.136C120.068 344.724 120.185 345.237 120.418 345.676C120.651 346.105 120.964 346.437 121.356 346.67C121.748 346.894 122.182 347.006 122.658 347.006C123.134 347.006 123.568 346.894 123.96 346.67C124.361 346.437 124.679 346.105 124.912 345.676C125.145 345.237 125.262 344.729 125.262 344.15ZM137.929 340.188C138.526 340.188 139.058 340.314 139.525 340.566C139.992 340.809 140.36 341.177 140.631 341.672C140.902 342.167 141.037 342.769 141.037 343.478V348H139.777V343.66C139.777 342.895 139.586 342.311 139.203 341.91C138.83 341.499 138.321 341.294 137.677 341.294C137.014 341.294 136.487 341.509 136.095 341.938C135.703 342.358 135.507 342.969 135.507 343.772V348H134.247V343.66C134.247 342.895 134.056 342.311 133.673 341.91C133.3 341.499 132.791 341.294 132.147 341.294C131.484 341.294 130.957 341.509 130.565 341.938C130.173 342.358 129.977 342.969 129.977 343.772V348H128.703V340.328H129.977V341.434C130.229 341.033 130.565 340.725 130.985 340.51C131.414 340.295 131.886 340.188 132.399 340.188C133.043 340.188 133.612 340.333 134.107 340.622C134.602 340.911 134.97 341.336 135.213 341.896C135.428 341.355 135.782 340.935 136.277 340.636C136.772 340.337 137.322 340.188 137.929 340.188ZM150.127 343.87C150.127 344.113 150.113 344.369 150.085 344.64H143.953C143.999 345.396 144.256 345.989 144.723 346.418C145.199 346.838 145.773 347.048 146.445 347.048C146.995 347.048 147.453 346.922 147.817 346.67C148.19 346.409 148.451 346.063 148.601 345.634H149.973C149.767 346.371 149.357 346.973 148.741 347.44C148.125 347.897 147.359 348.126 146.445 348.126C145.717 348.126 145.063 347.963 144.485 347.636C143.915 347.309 143.467 346.847 143.141 346.25C142.814 345.643 142.651 344.943 142.651 344.15C142.651 343.357 142.809 342.661 143.127 342.064C143.444 341.467 143.887 341.009 144.457 340.692C145.035 340.365 145.698 340.202 146.445 340.202C147.173 340.202 147.817 340.361 148.377 340.678C148.937 340.995 149.366 341.434 149.665 341.994C149.973 342.545 150.127 343.17 150.127 343.87ZM148.811 343.604C148.811 343.119 148.703 342.703 148.489 342.358C148.274 342.003 147.98 341.737 147.607 341.56C147.243 341.373 146.837 341.28 146.389 341.28C145.745 341.28 145.194 341.485 144.737 341.896C144.289 342.307 144.032 342.876 143.967 343.604H148.811Z" fill="#505050"/>
<path d="M36.2695 349.4H150.729V350.1H36.2695V349.4Z" fill="#505050"/>
<path d="M40.3855 391.242C41.4495 391.242 42.3689 391.443 43.1435 391.844C43.9275 392.236 44.5249 392.801 44.9355 393.538C45.3555 394.275 45.5655 395.143 45.5655 396.142C45.5655 397.141 45.3555 398.009 44.9355 398.746C44.5249 399.474 43.9275 400.034 43.1435 400.426C42.3689 400.809 41.4495 401 40.3855 401H37.3475V391.242H40.3855ZM40.3855 399.95C41.6455 399.95 42.6069 399.619 43.2695 398.956C43.9322 398.284 44.2635 397.346 44.2635 396.142C44.2635 394.929 43.9275 393.981 43.2555 393.3C42.5929 392.619 41.6362 392.278 40.3855 392.278H38.6215V399.95H40.3855ZM54.246 396.87C54.246 397.113 54.232 397.369 54.204 397.64H48.072C48.1186 398.396 48.3753 398.989 48.842 399.418C49.318 399.838 49.892 400.048 50.564 400.048C51.1146 400.048 51.572 399.922 51.936 399.67C52.3093 399.409 52.5706 399.063 52.72 398.634H54.092C53.8866 399.371 53.476 399.973 52.86 400.44C52.244 400.897 51.4786 401.126 50.564 401.126C49.836 401.126 49.1826 400.963 48.604 400.636C48.0346 400.309 47.5866 399.847 47.26 399.25C46.9333 398.643 46.77 397.943 46.77 397.15C46.77 396.357 46.9286 395.661 47.246 395.064C47.5633 394.467 48.0066 394.009 48.576 393.692C49.1546 393.365 49.8173 393.202 50.564 393.202C51.292 393.202 51.936 393.361 52.496 393.678C53.056 393.995 53.4853 394.434 53.784 394.994C54.092 395.545 54.246 396.17 54.246 396.87ZM52.93 396.604C52.93 396.119 52.8226 395.703 52.608 395.358C52.3933 395.003 52.0993 394.737 51.726 394.56C51.362 394.373 50.956 394.28 50.508 394.28C49.864 394.28 49.3133 394.485 48.856 394.896C48.408 395.307 48.1513 395.876 48.086 396.604H52.93ZM65.1536 393.188C65.7509 393.188 66.2829 393.314 66.7496 393.566C67.2163 393.809 67.5849 394.177 67.8556 394.672C68.1263 395.167 68.2616 395.769 68.2616 396.478V401H67.0016V396.66C67.0016 395.895 66.8103 395.311 66.4276 394.91C66.0543 394.499 65.5456 394.294 64.9016 394.294C64.2389 394.294 63.7116 394.509 63.3196 394.938C62.9276 395.358 62.7316 395.969 62.7316 396.772V401H61.4716V396.66C61.4716 395.895 61.2803 395.311 60.8976 394.91C60.5243 394.499 60.0156 394.294 59.3716 394.294C58.7089 394.294 58.1816 394.509 57.7896 394.938C57.3976 395.358 57.2016 395.969 57.2016 396.772V401H55.9276V393.328H57.2016V394.434C57.4536 394.033 57.7896 393.725 58.2096 393.51C58.6389 393.295 59.1103 393.188 59.6236 393.188C60.2676 393.188 60.8369 393.333 61.3316 393.622C61.8263 393.911 62.1949 394.336 62.4376 394.896C62.6523 394.355 63.0069 393.935 63.5016 393.636C63.9963 393.337 64.5469 393.188 65.1536 393.188ZM73.6974 401.126C72.9788 401.126 72.3254 400.963 71.7374 400.636C71.1588 400.309 70.7014 399.847 70.3654 399.25C70.0388 398.643 69.8754 397.943 69.8754 397.15C69.8754 396.366 70.0434 395.675 70.3794 395.078C70.7248 394.471 71.1914 394.009 71.7794 393.692C72.3674 393.365 73.0254 393.202 73.7534 393.202C74.4814 393.202 75.1394 393.365 75.7274 393.692C76.3154 394.009 76.7774 394.467 77.1134 395.064C77.4588 395.661 77.6314 396.357 77.6314 397.15C77.6314 397.943 77.4541 398.643 77.0994 399.25C76.7541 399.847 76.2828 400.309 75.6854 400.636C75.0881 400.963 74.4254 401.126 73.6974 401.126ZM73.6974 400.006C74.1548 400.006 74.5841 399.899 74.9854 399.684C75.3868 399.469 75.7088 399.147 75.9514 398.718C76.2034 398.289 76.3294 397.766 76.3294 397.15C76.3294 396.534 76.2081 396.011 75.9654 395.582C75.7228 395.153 75.4054 394.835 75.0134 394.63C74.6214 394.415 74.1968 394.308 73.7394 394.308C73.2728 394.308 72.8434 394.415 72.4514 394.63C72.0688 394.835 71.7608 395.153 71.5274 395.582C71.2941 396.011 71.1774 396.534 71.1774 397.15C71.1774 397.775 71.2894 398.303 71.5134 398.732C71.7468 399.161 72.0548 399.483 72.4374 399.698C72.8201 399.903 73.2401 400.006 73.6974 400.006ZM88.5549 391.242V392.278H84.3129V395.568H87.7569V396.604H84.3129V401H83.0389V391.242H88.5549ZM90.7516 392.082C90.509 392.082 90.3036 391.998 90.1356 391.83C89.9676 391.662 89.8836 391.457 89.8836 391.214C89.8836 390.971 89.9676 390.766 90.1356 390.598C90.3036 390.43 90.509 390.346 90.7516 390.346C90.985 390.346 91.181 390.43 91.3396 390.598C91.5076 390.766 91.5916 390.971 91.5916 391.214C91.5916 391.457 91.5076 391.662 91.3396 391.83C91.181 391.998 90.985 392.082 90.7516 392.082ZM91.3676 393.328V401H90.0936V393.328H91.3676ZM94.8129 390.64V401H93.5389V390.64H94.8129ZM103.984 396.87C103.984 397.113 103.97 397.369 103.942 397.64H97.8103C97.8569 398.396 98.1136 398.989 98.5803 399.418C99.0563 399.838 99.6303 400.048 100.302 400.048C100.853 400.048 101.31 399.922 101.674 399.67C102.048 399.409 102.309 399.063 102.458 398.634H103.83C103.625 399.371 103.214 399.973 102.598 400.44C101.982 400.897 101.217 401.126 100.302 401.126C99.5743 401.126 98.9209 400.963 98.3423 400.636C97.7729 400.309 97.3249 399.847 96.9983 399.25C96.6716 398.643 96.5083 397.943 96.5083 397.15C96.5083 396.357 96.6669 395.661 96.9843 395.064C97.3016 394.467 97.7449 394.009 98.3143 393.692C98.8929 393.365 99.5556 393.202 100.302 393.202C101.03 393.202 101.674 393.361 102.234 393.678C102.794 393.995 103.224 394.434 103.522 394.994C103.83 395.545 103.984 396.17 103.984 396.87ZM102.668 396.604C102.668 396.119 102.561 395.703 102.346 395.358C102.132 395.003 101.838 394.737 101.464 394.56C101.1 394.373 100.694 394.28 100.246 394.28C99.6023 394.28 99.0516 394.485 98.5943 394.896C98.1463 395.307 97.8896 395.876 97.8243 396.604H102.668ZM117.07 401H115.796L110.672 393.23V401H109.398V391.228H110.672L115.796 398.984V391.228H117.07V401ZM118.766 397.136C118.766 396.352 118.925 395.666 119.242 395.078C119.559 394.481 119.993 394.019 120.544 393.692C121.104 393.365 121.725 393.202 122.406 393.202C123.078 393.202 123.661 393.347 124.156 393.636C124.651 393.925 125.019 394.289 125.262 394.728V393.328H126.55V401H125.262V399.572C125.01 400.02 124.632 400.393 124.128 400.692C123.633 400.981 123.055 401.126 122.392 401.126C121.711 401.126 121.095 400.958 120.544 400.622C119.993 400.286 119.559 399.815 119.242 399.208C118.925 398.601 118.766 397.911 118.766 397.136ZM125.262 397.15C125.262 396.571 125.145 396.067 124.912 395.638C124.679 395.209 124.361 394.882 123.96 394.658C123.568 394.425 123.134 394.308 122.658 394.308C122.182 394.308 121.748 394.42 121.356 394.644C120.964 394.868 120.651 395.195 120.418 395.624C120.185 396.053 120.068 396.557 120.068 397.136C120.068 397.724 120.185 398.237 120.418 398.676C120.651 399.105 120.964 399.437 121.356 399.67C121.748 399.894 122.182 400.006 122.658 400.006C123.134 400.006 123.568 399.894 123.96 399.67C124.361 399.437 124.679 399.105 124.912 398.676C125.145 398.237 125.262 397.729 125.262 397.15ZM137.929 393.188C138.526 393.188 139.058 393.314 139.525 393.566C139.992 393.809 140.36 394.177 140.631 394.672C140.902 395.167 141.037 395.769 141.037 396.478V401H139.777V396.66C139.777 395.895 139.586 395.311 139.203 394.91C138.83 394.499 138.321 394.294 137.677 394.294C137.014 394.294 136.487 394.509 136.095 394.938C135.703 395.358 135.507 395.969 135.507 396.772V401H134.247V396.66C134.247 395.895 134.056 395.311 133.673 394.91C133.3 394.499 132.791 394.294 132.147 394.294C131.484 394.294 130.957 394.509 130.565 394.938C130.173 395.358 129.977 395.969 129.977 396.772V401H128.703V393.328H129.977V394.434C130.229 394.033 130.565 393.725 130.985 393.51C131.414 393.295 131.886 393.188 132.399 393.188C133.043 393.188 133.612 393.333 134.107 393.622C134.602 393.911 134.97 394.336 135.213 394.896C135.428 394.355 135.782 393.935 136.277 393.636C136.772 393.337 137.322 393.188 137.929 393.188ZM150.127 396.87C150.127 397.113 150.113 397.369 150.085 397.64H143.953C143.999 398.396 144.256 398.989 144.723 399.418C145.199 399.838 145.773 400.048 146.445 400.048C146.995 400.048 147.453 399.922 147.817 399.67C148.19 399.409 148.451 399.063 148.601 398.634H149.973C149.767 399.371 149.357 399.973 148.741 400.44C148.125 400.897 147.359 401.126 146.445 401.126C145.717 401.126 145.063 400.963 144.485 400.636C143.915 400.309 143.467 399.847 143.141 399.25C142.814 398.643 142.651 397.943 142.651 397.15C142.651 396.357 142.809 395.661 143.127 395.064C143.444 394.467 143.887 394.009 144.457 393.692C145.035 393.365 145.698 393.202 146.445 393.202C147.173 393.202 147.817 393.361 148.377 393.678C148.937 393.995 149.366 394.434 149.665 394.994C149.973 395.545 150.127 396.17 150.127 396.87ZM148.811 396.604C148.811 396.119 148.703 395.703 148.489 395.358C148.274 395.003 147.98 394.737 147.607 394.56C147.243 394.373 146.837 394.28 146.389 394.28C145.745 394.28 145.194 394.485 144.737 394.896C144.289 395.307 144.032 395.876 143.967 396.604H148.811Z" fill="#505050"/>
<path d="M36.2695 402.4H150.729V403.1H36.2695V402.4Z" fill="#505050"/>
</svg>