<svg xmlns="http://www.w3.org/2000/svg" width="73" height="46" viewBox="0 0 73 46" fill="none">
<path fill-rule="evenodd" clip-rule="evenodd" d="M9 0C7.34315 0 6 1.34315 6 3V31C6 32.6569 7.34315 34 9 34H49.2392L54.8 46L60.3608 34H64C65.6569 34 67 32.6569 67 31V3C67 1.34315 65.6569 0 64 0H9Z" fill="#F9FE00"/>
<path d="M13.4614 11.84C13.0174 11.84 12.6454 11.702 12.3454 11.426C12.0574 11.138 11.9134 10.784 11.9134 10.364C11.9134 9.944 12.0574 9.596 12.3454 9.32C12.6454 9.032 13.0174 8.888 13.4614 8.888C13.9054 8.888 14.2714 9.032 14.5594 9.32C14.8594 9.596 15.0094 9.944 15.0094 10.364C15.0094 10.784 14.8594 11.138 14.5594 11.426C14.2714 11.702 13.9054 11.84 13.4614 11.84ZM14.7034 13.028V23H12.1834V13.028H14.7034ZM22.7192 12.884C23.9072 12.884 24.8672 13.262 25.5992 14.018C26.3312 14.762 26.6972 15.806 26.6972 17.15V23H24.1772V17.492C24.1772 16.7 23.9792 16.094 23.5832 15.674C23.1872 15.242 22.6472 15.026 21.9632 15.026C21.2672 15.026 20.7152 15.242 20.3072 15.674C19.9112 16.094 19.7132 16.7 19.7132 17.492V23H17.1932V13.028H19.7132V14.27C20.0492 13.838 20.4752 13.502 20.9912 13.262C21.5192 13.01 22.0952 12.884 22.7192 12.884ZM30.3716 11.84C29.9276 11.84 29.5556 11.702 29.2556 11.426C28.9676 11.138 28.8236 10.784 28.8236 10.364C28.8236 9.944 28.9676 9.596 29.2556 9.32C29.5556 9.032 29.9276 8.888 30.3716 8.888C30.8156 8.888 31.1816 9.032 31.4696 9.32C31.7696 9.596 31.9196 9.944 31.9196 10.364C31.9196 10.784 31.7696 11.138 31.4696 11.426C31.1816 11.702 30.8156 11.84 30.3716 11.84ZM31.6136 13.028V23H29.0936V13.028H31.6136ZM37.0373 15.098V19.922C37.0373 20.258 37.1153 20.504 37.2713 20.66C37.4393 20.804 37.7153 20.876 38.0993 20.876H39.2693V23H37.6853C35.5613 23 34.4993 21.968 34.4993 19.904V15.098H33.3113V13.028H34.4993V10.562H37.0373V13.028H39.2693V15.098H37.0373ZM42.3598 11.84C41.9158 11.84 41.5438 11.702 41.2438 11.426C40.9558 11.138 40.8118 10.784 40.8118 10.364C40.8118 9.944 40.9558 9.596 41.2438 9.32C41.5438 9.032 41.9158 8.888 42.3598 8.888C42.8038 8.888 43.1698 9.032 43.4578 9.32C43.7578 9.596 43.9078 9.944 43.9078 10.364C43.9078 10.784 43.7578 11.138 43.4578 11.426C43.1698 11.702 42.8038 11.84 42.3598 11.84ZM43.6018 13.028V23H41.0818V13.028H43.6018ZM45.4436 17.978C45.4436 16.97 45.6416 16.076 46.0376 15.296C46.4456 14.516 46.9916 13.916 47.6756 13.496C48.3716 13.076 49.1456 12.866 49.9976 12.866C50.7416 12.866 51.3896 13.016 51.9416 13.316C52.5056 13.616 52.9556 13.994 53.2916 14.45V13.028H55.8296V23H53.2916V21.542C52.9676 22.01 52.5176 22.4 51.9416 22.712C51.3776 23.012 50.7236 23.162 49.9796 23.162C49.1396 23.162 48.3716 22.946 47.6756 22.514C46.9916 22.082 46.4456 21.476 46.0376 20.696C45.6416 19.904 45.4436 18.998 45.4436 17.978ZM53.2916 18.014C53.2916 17.402 53.1716 16.88 52.9316 16.448C52.6916 16.004 52.3676 15.668 51.9596 15.44C51.5516 15.2 51.1136 15.08 50.6456 15.08C50.1776 15.08 49.7456 15.194 49.3496 15.422C48.9536 15.65 48.6296 15.986 48.3776 16.43C48.1376 16.862 48.0176 17.378 48.0176 17.978C48.0176 18.578 48.1376 19.106 48.3776 19.562C48.6296 20.006 48.9536 20.348 49.3496 20.588C49.7576 20.828 50.1896 20.948 50.6456 20.948C51.1136 20.948 51.5516 20.834 51.9596 20.606C52.3676 20.366 52.6916 20.03 52.9316 19.598C53.1716 19.154 53.2916 18.626 53.2916 18.014ZM60.8108 9.68V23H58.2908V9.68H60.8108Z" fill="#FC0A0A"/>
</svg>