<svg width="56" height="38" viewBox="0 0 56 38" fill="none" xmlns="http://www.w3.org/2000/svg">
<rect x="0.395345" y="0.395833" width="54.625" height="37.2083" rx="4.35417" fill="white" stroke="#D9D9D9" stroke-width="0.791667"/>
<path fill-rule="evenodd" clip-rule="evenodd" d="M28.02 27.5198C26.1333 29.1479 23.686 30.1307 21.0118 30.1307C15.0448 30.1307 10.2075 25.2373 10.2075 19.201C10.2075 13.1646 15.0448 8.27124 21.0118 8.27124C23.686 8.27124 26.1333 9.25408 28.02 10.8822C29.9066 9.25408 32.3539 8.27124 35.0281 8.27124C40.9952 8.27124 45.8324 13.1646 45.8324 19.201C45.8324 25.2373 40.9952 30.1307 35.0281 30.1307C32.3539 30.1307 29.9066 29.1479 28.02 27.5198Z" fill="#ED0006"/>
<path fill-rule="evenodd" clip-rule="evenodd" d="M28.0205 27.5197C30.3435 25.515 31.8166 22.532 31.8166 19.201C31.8166 15.87 30.3435 12.887 28.0205 10.8823C29.9072 9.25412 32.3545 8.27124 35.0288 8.27124C40.9958 8.27124 45.8331 13.1646 45.8331 19.201C45.8331 25.2373 40.9958 30.1307 35.0288 30.1307C32.3545 30.1307 29.9072 29.1478 28.0205 27.5197Z" fill="#F9A000"/>
<path fill-rule="evenodd" clip-rule="evenodd" d="M28.0197 10.8823C30.3427 12.887 31.8157 15.87 31.8157 19.201C31.8157 22.532 30.3427 25.515 28.0197 27.5197C25.6966 25.515 24.2236 22.532 24.2236 19.201C24.2236 15.87 25.6966 12.887 28.0197 10.8823Z" fill="#FF5E00"/>
</svg>
