<svg xmlns="http://www.w3.org/2000/svg" width="113" height="610" viewBox="0 0 113 610" fill="none">
<path d="M0 20C0 8.95432 8.95431 0 20 0H113V610H20C8.95431 610 0 601.046 0 590V20Z" fill="white"/>
<line x1="4.38262e-08" y1="92.5" x2="113" y2="92.5" stroke="#F1F1F1"/>
<line x1="4.40211e-08" y1="146.5" x2="113" y2="146.5" stroke="#F1F1F1"/>
<line x1="4.40211e-08" y1="258.5" x2="113" y2="258.5" stroke="#F1F1F1"/>
<line x1="4.40211e-08" y1="202.5" x2="113" y2="202.5" stroke="#F1F1F1"/>
<line x1="4.40211e-08" y1="314.5" x2="113" y2="314.5" stroke="#F1F1F1"/>
<line x1="4.40211e-08" y1="370.5" x2="113" y2="370.5" stroke="#F1F1F1"/>
<path d="M28.6786 56.112C27.6333 56.112 26.6733 55.8667 25.7986 55.376C24.924 54.8853 24.2306 54.208 23.7186 53.344C23.2066 52.4693 22.9506 51.4827 22.9506 50.384C22.9506 49.296 23.2066 48.32 23.7186 47.456C24.2306 46.5813 24.924 45.8987 25.7986 45.408C26.6733 44.9173 27.6333 44.672 28.6786 44.672C29.7346 44.672 30.6946 44.9173 31.5586 45.408C32.4333 45.8987 33.1213 46.5813 33.6226 47.456C34.1346 48.32 34.3906 49.296 34.3906 50.384C34.3906 51.4827 34.1346 52.4693 33.6226 53.344C33.1213 54.208 32.4333 54.8853 31.5586 55.376C30.684 55.8667 29.724 56.112 28.6786 56.112ZM28.6786 54.112C29.3506 54.112 29.9426 53.9627 30.4546 53.664C30.9666 53.3547 31.3666 52.9173 31.6546 52.352C31.9426 51.7867 32.0866 51.1307 32.0866 50.384C32.0866 49.6373 31.9426 48.9867 31.6546 48.432C31.3666 47.8667 30.9666 47.4347 30.4546 47.136C29.9426 46.8373 29.3506 46.688 28.6786 46.688C28.0066 46.688 27.4093 46.8373 26.8866 47.136C26.3746 47.4347 25.9746 47.8667 25.6866 48.432C25.3986 48.9867 25.2546 49.6373 25.2546 50.384C25.2546 51.1307 25.3986 51.7867 25.6866 52.352C25.9746 52.9173 26.3746 53.3547 26.8866 53.664C27.4093 53.9627 28.0066 54.112 28.6786 54.112ZM38.2971 48.512C38.5851 48.0427 38.9585 47.6747 39.4171 47.408C39.8865 47.1413 40.4198 47.008 41.0171 47.008V49.36H40.4251C39.7211 49.36 39.1878 49.5253 38.8251 49.856C38.4731 50.1867 38.2971 50.7627 38.2971 51.584V56H36.0571V47.136H38.2971V48.512ZM41.9499 51.536C41.9499 50.64 42.1259 49.8453 42.4779 49.152C42.8405 48.4587 43.3312 47.9253 43.9499 47.552C44.5685 47.1787 45.2565 46.992 46.0139 46.992C46.5899 46.992 47.1392 47.12 47.6619 47.376C48.1845 47.6213 48.6005 47.952 48.9099 48.368V44.16H51.1819V56H48.9099V54.688C48.6325 55.1253 48.2432 55.4773 47.7419 55.744C47.2405 56.0107 46.6592 56.144 45.9979 56.144C45.2512 56.144 44.5685 55.952 43.9499 55.568C43.3312 55.184 42.8405 54.6453 42.4779 53.952C42.1259 53.248 41.9499 52.4427 41.9499 51.536ZM48.9259 51.568C48.9259 51.024 48.8192 50.56 48.6059 50.176C48.3925 49.7813 48.1045 49.4827 47.7419 49.28C47.3792 49.0667 46.9899 48.96 46.5739 48.96C46.1579 48.96 45.7739 49.0613 45.4219 49.264C45.0699 49.4667 44.7819 49.7653 44.5579 50.16C44.3445 50.544 44.2379 51.0027 44.2379 51.536C44.2379 52.0693 44.3445 52.5387 44.5579 52.944C44.7819 53.3387 45.0699 53.6427 45.4219 53.856C45.7845 54.0693 46.1685 54.176 46.5739 54.176C46.9899 54.176 47.3792 54.0747 47.7419 53.872C48.1045 53.6587 48.3925 53.36 48.6059 52.976C48.8192 52.5813 48.9259 52.112 48.9259 51.568ZM61.6096 51.376C61.6096 51.696 61.5883 51.984 61.5456 52.24H55.0656C55.119 52.88 55.343 53.3813 55.7376 53.744C56.1323 54.1067 56.6176 54.288 57.1936 54.288C58.0256 54.288 58.6176 53.9307 58.9696 53.216H61.3856C61.1296 54.0693 60.639 54.7733 59.9136 55.328C59.1883 55.872 58.2976 56.144 57.2416 56.144C56.3883 56.144 55.6203 55.9573 54.9376 55.584C54.2656 55.2 53.7376 54.6613 53.3536 53.968C52.9803 53.2747 52.7936 52.4747 52.7936 51.568C52.7936 50.6507 52.9803 49.8453 53.3536 49.152C53.727 48.4587 54.2496 47.9253 54.9216 47.552C55.5936 47.1787 56.367 46.992 57.2416 46.992C58.0843 46.992 58.8363 47.1733 59.4976 47.536C60.1696 47.8987 60.687 48.416 61.0496 49.088C61.423 49.7493 61.6096 50.512 61.6096 51.376ZM59.2896 50.736C59.279 50.16 59.071 49.7013 58.6656 49.36C58.2603 49.008 57.7643 48.832 57.1776 48.832C56.623 48.832 56.1536 49.0027 55.7696 49.344C55.3963 49.6747 55.167 50.1387 55.0816 50.736H59.2896ZM65.4846 48.512C65.7726 48.0427 66.146 47.6747 66.6046 47.408C67.074 47.1413 67.6073 47.008 68.2046 47.008V49.36H67.6126C66.9086 49.36 66.3753 49.5253 66.0126 49.856C65.6606 50.1867 65.4846 50.7627 65.4846 51.584V56H63.2446V47.136H65.4846V48.512Z" fill="#414142"/>
<circle cx="36.9" cy="113.9" r="1.9" fill="#505050"/>
<circle cx="36.9" cy="121.5" r="1.9" fill="#505050"/>
<circle cx="36.9" cy="129.1" r="1.9" fill="#505050"/>
<circle cx="44.5016" cy="113.9" r="1.9" fill="#505050"/>
<circle cx="44.5016" cy="121.5" r="1.9" fill="#505050"/>
<circle cx="44.5016" cy="129.1" r="1.9" fill="#505050"/>
<circle cx="52.0992" cy="113.9" r="1.9" fill="#505050"/>
<circle cx="52.0992" cy="121.5" r="1.9" fill="#505050"/>
<circle cx="52.0992" cy="129.1" r="1.9" fill="#505050"/>
<circle cx="36.9" cy="166.9" r="1.9" fill="#505050"/>
<circle cx="36.9" cy="174.5" r="1.9" fill="#505050"/>
<circle cx="36.9" cy="182.1" r="1.9" fill="#505050"/>
<circle cx="44.5016" cy="166.9" r="1.9" fill="#505050"/>
<circle cx="44.5016" cy="174.5" r="1.9" fill="#505050"/>
<circle cx="44.5016" cy="182.1" r="1.9" fill="#505050"/>
<circle cx="52.0992" cy="166.9" r="1.9" fill="#505050"/>
<circle cx="52.0992" cy="174.5" r="1.9" fill="#505050"/>
<circle cx="52.0992" cy="182.1" r="1.9" fill="#505050"/>
<circle cx="36.9" cy="222.9" r="1.9" fill="#505050"/>
<circle cx="36.9" cy="230.5" r="1.9" fill="#505050"/>
<circle cx="36.9" cy="238.1" r="1.9" fill="#505050"/>
<circle cx="44.5016" cy="222.9" r="1.9" fill="#505050"/>
<circle cx="44.5016" cy="230.5" r="1.9" fill="#505050"/>
<circle cx="44.5016" cy="238.1" r="1.9" fill="#505050"/>
<circle cx="52.0992" cy="222.9" r="1.9" fill="#505050"/>
<circle cx="52.0992" cy="230.5" r="1.9" fill="#505050"/>
<circle cx="52.0992" cy="238.1" r="1.9" fill="#505050"/>
<circle cx="36.9" cy="278.9" r="1.9" fill="#505050"/>
<circle cx="36.9" cy="286.5" r="1.9" fill="#505050"/>
<circle cx="36.9" cy="294.1" r="1.9" fill="#505050"/>
<circle cx="44.5016" cy="278.9" r="1.9" fill="#505050"/>
<circle cx="44.5016" cy="286.5" r="1.9" fill="#505050"/>
<circle cx="44.5016" cy="294.1" r="1.9" fill="#505050"/>
<circle cx="52.0992" cy="278.9" r="1.9" fill="#505050"/>
<circle cx="52.0992" cy="286.5" r="1.9" fill="#505050"/>
<circle cx="52.0992" cy="294.1" r="1.9" fill="#505050"/>
<circle cx="36.9" cy="335.9" r="1.9" fill="#505050"/>
<circle cx="36.9" cy="343.5" r="1.9" fill="#505050"/>
<circle cx="36.9" cy="351.1" r="1.9" fill="#505050"/>
<circle cx="44.5016" cy="335.9" r="1.9" fill="#505050"/>
<circle cx="44.5016" cy="343.5" r="1.9" fill="#505050"/>
<circle cx="44.5016" cy="351.1" r="1.9" fill="#505050"/>
<circle cx="52.0992" cy="335.9" r="1.9" fill="#505050"/>
<circle cx="52.0992" cy="343.5" r="1.9" fill="#505050"/>
<circle cx="52.0992" cy="351.1" r="1.9" fill="#505050"/>
<circle cx="36.9" cy="390.9" r="1.9" fill="#505050"/>
<circle cx="36.9" cy="398.5" r="1.9" fill="#505050"/>
<circle cx="36.9" cy="406.1" r="1.9" fill="#505050"/>
<circle cx="44.5016" cy="390.9" r="1.9" fill="#505050"/>
<circle cx="44.5016" cy="398.5" r="1.9" fill="#505050"/>
<circle cx="44.5016" cy="406.1" r="1.9" fill="#505050"/>
<circle cx="52.0992" cy="390.9" r="1.9" fill="#505050"/>
<circle cx="52.0992" cy="398.5" r="1.9" fill="#505050"/>
<circle cx="52.0992" cy="406.1" r="1.9" fill="#505050"/>
</svg>