<svg xmlns="http://www.w3.org/2000/svg" width="146" height="46" viewBox="0 0 146 46" fill="none">
<path fill-rule="evenodd" clip-rule="evenodd" d="M3 0C1.34315 0 0 1.34315 0 3V31C0 32.6569 1.34314 34 3 34H103.491L116.8 46L130.109 34H143C144.657 34 146 32.6569 146 31V3C146 1.34315 144.657 0 143 0H3Z" fill="#F9FE00"/>
<path d="M30.1465 7.436V9.47H26.7985V20H24.2785V9.47H20.9305V7.436H30.1465ZM41.5252 10.028L35.3512 24.716H32.6692L34.8292 19.748L30.8332 10.028H33.6592L36.2332 16.994L38.8432 10.028H41.5252ZM45.4036 11.468C45.7276 11.012 46.1716 10.634 46.7356 10.334C47.3116 10.022 47.9656 9.866 48.6976 9.866C49.5496 9.866 50.3176 10.076 51.0016 10.496C51.6976 10.916 52.2436 11.516 52.6396 12.296C53.0476 13.064 53.2516 13.958 53.2516 14.978C53.2516 15.998 53.0476 16.904 52.6396 17.696C52.2436 18.476 51.6976 19.082 51.0016 19.514C50.3176 19.946 49.5496 20.162 48.6976 20.162C47.9656 20.162 47.3176 20.012 46.7536 19.712C46.2016 19.412 45.7516 19.034 45.4036 18.578V24.752H42.8836V10.028H45.4036V11.468ZM50.6776 14.978C50.6776 14.378 50.5516 13.862 50.2996 13.43C50.0596 12.986 49.7356 12.65 49.3276 12.422C48.9316 12.194 48.4996 12.08 48.0316 12.08C47.5756 12.08 47.1436 12.2 46.7356 12.44C46.3396 12.668 46.0156 13.004 45.7636 13.448C45.5236 13.892 45.4036 14.414 45.4036 15.014C45.4036 15.614 45.5236 16.136 45.7636 16.58C46.0156 17.024 46.3396 17.366 46.7356 17.606C47.1436 17.834 47.5756 17.948 48.0316 17.948C48.4996 17.948 48.9316 17.828 49.3276 17.588C49.7356 17.348 50.0596 17.006 50.2996 16.562C50.5516 16.118 50.6776 15.59 50.6776 14.978ZM64.3528 14.798C64.3528 15.158 64.3288 15.482 64.2808 15.77H56.9908C57.0508 16.49 57.3028 17.054 57.7468 17.462C58.1908 17.87 58.7368 18.074 59.3848 18.074C60.3208 18.074 60.9868 17.672 61.3828 16.868H64.1008C63.8128 17.828 63.2608 18.62 62.4448 19.244C61.6288 19.856 60.6268 20.162 59.4388 20.162C58.4788 20.162 57.6148 19.952 56.8468 19.532C56.0908 19.1 55.4968 18.494 55.0648 17.714C54.6448 16.934 54.4348 16.034 54.4348 15.014C54.4348 13.982 54.6448 13.076 55.0648 12.296C55.4848 11.516 56.0728 10.916 56.8288 10.496C57.5848 10.076 58.4548 9.866 59.4388 9.866C60.3868 9.866 61.2328 10.07 61.9768 10.478C62.7328 10.886 63.3148 11.468 63.7228 12.224C64.1428 12.968 64.3528 13.826 64.3528 14.798ZM61.7428 14.078C61.7308 13.43 61.4968 12.914 61.0408 12.53C60.5848 12.134 60.0268 11.936 59.3668 11.936C58.7428 11.936 58.2148 12.128 57.7828 12.512C57.3628 12.884 57.1048 13.406 57.0088 14.078H61.7428ZM81.2273 20H78.7073L73.0013 11.378V20H70.4813V7.418H73.0013L78.7073 16.058V7.418H81.2273V20ZM83.0696 14.978C83.0696 13.97 83.2676 13.076 83.6636 12.296C84.0716 11.516 84.6176 10.916 85.3016 10.496C85.9976 10.076 86.7716 9.866 87.6236 9.866C88.3676 9.866 89.0156 10.016 89.5676 10.316C90.1316 10.616 90.5816 10.994 90.9176 11.45V10.028H93.4556V20H90.9176V18.542C90.5936 19.01 90.1436 19.4 89.5676 19.712C89.0036 20.012 88.3496 20.162 87.6056 20.162C86.7656 20.162 85.9976 19.946 85.3016 19.514C84.6176 19.082 84.0716 18.476 83.6636 17.696C83.2676 16.904 83.0696 15.998 83.0696 14.978ZM90.9176 15.014C90.9176 14.402 90.7976 13.88 90.5576 13.448C90.3176 13.004 89.9936 12.668 89.5856 12.44C89.1776 12.2 88.7396 12.08 88.2716 12.08C87.8036 12.08 87.3716 12.194 86.9756 12.422C86.5796 12.65 86.2556 12.986 86.0036 13.43C85.7636 13.862 85.6436 14.378 85.6436 14.978C85.6436 15.578 85.7636 16.106 86.0036 16.562C86.2556 17.006 86.5796 17.348 86.9756 17.588C87.3836 17.828 87.8156 17.948 88.2716 17.948C88.7396 17.948 89.1776 17.834 89.5856 17.606C89.9936 17.366 90.3176 17.03 90.5576 16.598C90.7976 16.154 90.9176 15.626 90.9176 15.014ZM108.301 9.884C109.525 9.884 110.509 10.262 111.253 11.018C112.009 11.762 112.387 12.806 112.387 14.15V20H109.867V14.492C109.867 13.712 109.669 13.118 109.273 12.71C108.877 12.29 108.337 12.08 107.653 12.08C106.969 12.08 106.423 12.29 106.015 12.71C105.619 13.118 105.421 13.712 105.421 14.492V20H102.901V14.492C102.901 13.712 102.703 13.118 102.307 12.71C101.911 12.29 101.371 12.08 100.687 12.08C99.9908 12.08 99.4388 12.29 99.0308 12.71C98.6348 13.118 98.4368 13.712 98.4368 14.492V20H95.9168V10.028H98.4368V11.234C98.7608 10.814 99.1748 10.484 99.6788 10.244C100.195 10.004 100.759 9.884 101.371 9.884C102.151 9.884 102.847 10.052 103.459 10.388C104.071 10.712 104.545 11.18 104.881 11.792C105.205 11.216 105.673 10.754 106.285 10.406C106.909 10.058 107.581 9.884 108.301 9.884ZM124.048 14.798C124.048 15.158 124.024 15.482 123.976 15.77H116.686C116.746 16.49 116.998 17.054 117.442 17.462C117.886 17.87 118.432 18.074 119.08 18.074C120.016 18.074 120.682 17.672 121.078 16.868H123.796C123.508 17.828 122.956 18.62 122.14 19.244C121.324 19.856 120.322 20.162 119.134 20.162C118.174 20.162 117.31 19.952 116.542 19.532C115.786 19.1 115.192 18.494 114.76 17.714C114.34 16.934 114.13 16.034 114.13 15.014C114.13 13.982 114.34 13.076 114.76 12.296C115.18 11.516 115.768 10.916 116.524 10.496C117.28 10.076 118.15 9.866 119.134 9.866C120.082 9.866 120.928 10.07 121.672 10.478C122.428 10.886 123.01 11.468 123.418 12.224C123.838 12.968 124.048 13.826 124.048 14.798ZM121.438 14.078C121.426 13.43 121.192 12.914 120.736 12.53C120.28 12.134 119.722 11.936 119.062 11.936C118.438 11.936 117.91 12.128 117.478 12.512C117.058 12.884 116.8 13.406 116.704 14.078H121.438Z" fill="#FC0A0A"/>
</svg>