<svg xmlns="http://www.w3.org/2000/svg" width="60" height="60" viewBox="0 0 60 60" fill="none">
<rect width="60" height="60" rx="8.4507" fill="white"/>
<path d="M28.8115 28.3074V14.7099C28.8115 14.0535 29.3436 13.5215 29.9999 13.5215C30.6562 13.5215 31.1883 14.0535 31.1883 14.7099V28.3074L34.2763 24.9621C34.7215 24.4798 35.4733 24.4497 35.9556 24.8949C36.4379 25.3401 36.4679 26.0919 36.0228 26.5742L30.8731 32.1529C30.6481 32.3967 30.3316 32.5353 29.9999 32.5353C29.6682 32.5353 29.3516 32.3967 29.1267 32.1529L23.977 26.5742C23.5318 26.0919 23.5619 25.3401 24.0442 24.8949C24.5264 24.4497 25.2783 24.4798 25.7235 24.9621L28.8115 28.3074Z" fill="#505050"/>
<path fill-rule="evenodd" clip-rule="evenodd" d="M14.9471 19.4637C14.9471 19.2449 15.1244 19.0675 15.3432 19.0675H24.058C24.7143 19.0675 25.2464 18.5355 25.2464 17.8791C25.2464 17.2228 24.7143 16.6908 24.058 16.6908H15.3432C13.8118 16.6908 12.5703 17.9322 12.5703 19.4637V37.6855C12.5703 39.2169 13.8118 40.4584 15.3432 40.4584H25.1727C24.9022 42.6372 23.8978 44.6607 22.3702 46.4111C22.0638 46.7622 21.9909 47.26 22.1837 47.6843C22.3765 48.1085 22.7995 48.3809 23.2656 48.3809H36.7339C37.1999 48.3809 37.6229 48.1085 37.8157 47.6843C38.0086 47.26 37.9356 46.7622 37.6292 46.4111C36.1016 44.6607 35.0972 42.6372 34.8267 40.4584H44.6566C46.188 40.4584 47.4295 39.2169 47.4295 37.6855V19.4637C47.4295 17.9322 46.188 16.6908 44.6566 16.6908H35.9418C35.2855 16.6908 34.7534 17.2228 34.7534 17.8791C34.7534 18.5355 35.2855 19.0675 35.9418 19.0675H44.6566C44.8754 19.0675 45.0527 19.2449 45.0527 19.4637V37.6855C45.0527 37.9043 44.8754 38.0816 44.6566 38.0816H15.3432C15.1244 38.0816 14.9471 37.9043 14.9471 37.6855V19.4637ZM27.5643 40.4584C27.3654 42.4646 26.6706 44.3325 25.6262 46.0041H34.3732C33.3288 44.3325 32.634 42.4646 32.4352 40.4584H27.5643Z" fill="#505050"/>
</svg>