<svg xmlns="http://www.w3.org/2000/svg" width="51" height="46" viewBox="0 0 51 46" fill="none">
<path fill-rule="evenodd" clip-rule="evenodd" d="M3 0C1.34315 0 0 1.34315 0 3V31C0 32.6569 1.34315 34 3 34H36.1518L40.801 46L45.4502 34H48C49.6569 34 51 32.6569 51 31V3C51 1.34315 49.6569 0 48 0H3Z" fill="#F9FE00"/>
<path d="M11.0409 23.126C10.1649 23.126 9.37294 22.976 8.66494 22.676C7.96894 22.376 7.41694 21.944 7.00894 21.38C6.60094 20.816 6.39094 20.15 6.37894 19.382H9.07894C9.11494 19.898 9.29494 20.306 9.61894 20.606C9.95494 20.906 10.4109 21.056 10.9869 21.056C11.5749 21.056 12.0369 20.918 12.3729 20.642C12.7089 20.354 12.8769 19.982 12.8769 19.526C12.8769 19.154 12.7629 18.848 12.5349 18.608C12.3069 18.368 12.0189 18.182 11.6709 18.05C11.3349 17.906 10.8669 17.75 10.2669 17.582C9.45094 17.342 8.78494 17.108 8.26894 16.88C7.76494 16.64 7.32694 16.286 6.95494 15.818C6.59494 15.338 6.41494 14.702 6.41494 13.91C6.41494 13.166 6.60094 12.518 6.97294 11.966C7.34494 11.414 7.86694 10.994 8.53894 10.706C9.21094 10.406 9.97894 10.256 10.8429 10.256C12.1389 10.256 13.1889 10.574 13.9929 11.21C14.8089 11.834 15.2589 12.71 15.3429 13.838H12.5709C12.5469 13.406 12.3609 13.052 12.0129 12.776C11.6769 12.488 11.2269 12.344 10.6629 12.344C10.1709 12.344 9.77494 12.47 9.47494 12.722C9.18694 12.974 9.04294 13.34 9.04294 13.82C9.04294 14.156 9.15094 14.438 9.36694 14.666C9.59494 14.882 9.87094 15.062 10.1949 15.206C10.5309 15.338 10.9989 15.494 11.5989 15.674C12.4149 15.914 13.0809 16.154 13.5969 16.394C14.1129 16.634 14.5569 16.994 14.9289 17.474C15.3009 17.954 15.4869 18.584 15.4869 19.364C15.4869 20.036 15.3129 20.66 14.9649 21.236C14.6169 21.812 14.1069 22.274 13.4349 22.622C12.7629 22.958 11.9649 23.126 11.0409 23.126ZM18.9497 11.84C18.5057 11.84 18.1337 11.702 17.8337 11.426C17.5457 11.138 17.4017 10.784 17.4017 10.364C17.4017 9.944 17.5457 9.596 17.8337 9.32C18.1337 9.032 18.5057 8.888 18.9497 8.888C19.3937 8.888 19.7597 9.032 20.0477 9.32C20.3477 9.596 20.4977 9.944 20.4977 10.364C20.4977 10.784 20.3477 11.138 20.0477 11.426C19.7597 11.702 19.3937 11.84 18.9497 11.84ZM20.1917 13.028V23H17.6717V13.028H20.1917ZM26.5875 12.866C27.3315 12.866 27.9855 13.016 28.5495 13.316C29.1135 13.604 29.5575 13.982 29.8815 14.45V13.028H32.4195V23.072C32.4195 23.996 32.2335 24.818 31.8615 25.538C31.4895 26.27 30.9315 26.846 30.1875 27.266C29.4435 27.698 28.5435 27.914 27.4875 27.914C26.0715 27.914 24.9075 27.584 23.9955 26.924C23.0955 26.264 22.5855 25.364 22.4655 24.224H24.9675C25.0995 24.68 25.3815 25.04 25.8135 25.304C26.2575 25.58 26.7915 25.718 27.4155 25.718C28.1475 25.718 28.7415 25.496 29.1975 25.052C29.6535 24.62 29.8815 23.96 29.8815 23.072V21.524C29.5575 21.992 29.1075 22.382 28.5315 22.694C27.9675 23.006 27.3195 23.162 26.5875 23.162C25.7475 23.162 24.9795 22.946 24.2835 22.514C23.5875 22.082 23.0355 21.476 22.6275 20.696C22.2315 19.904 22.0335 18.998 22.0335 17.978C22.0335 16.97 22.2315 16.076 22.6275 15.296C23.0355 14.516 23.5815 13.916 24.2655 13.496C24.9615 13.076 25.7355 12.866 26.5875 12.866ZM29.8815 18.014C29.8815 17.402 29.7615 16.88 29.5215 16.448C29.2815 16.004 28.9575 15.668 28.5495 15.44C28.1415 15.2 27.7035 15.08 27.2355 15.08C26.7675 15.08 26.3355 15.194 25.9395 15.422C25.5435 15.65 25.2195 15.986 24.9675 16.43C24.7275 16.862 24.6075 17.378 24.6075 17.978C24.6075 18.578 24.7275 19.106 24.9675 19.562C25.2195 20.006 25.5435 20.348 25.9395 20.588C26.3475 20.828 26.7795 20.948 27.2355 20.948C27.7035 20.948 28.1415 20.834 28.5495 20.606C28.9575 20.366 29.2815 20.03 29.5215 19.598C29.7615 19.154 29.8815 18.626 29.8815 18.014ZM40.4067 12.884C41.5947 12.884 42.5547 13.262 43.2867 14.018C44.0187 14.762 44.3847 15.806 44.3847 17.15V23H41.8647V17.492C41.8647 16.7 41.6667 16.094 41.2707 15.674C40.8747 15.242 40.3347 15.026 39.6507 15.026C38.9547 15.026 38.4027 15.242 37.9947 15.674C37.5987 16.094 37.4007 16.7 37.4007 17.492V23H34.8807V13.028H37.4007V14.27C37.7367 13.838 38.1627 13.502 38.6787 13.262C39.2067 13.01 39.7827 12.884 40.4067 12.884Z" fill="#FC0A0A"/>
</svg>