<svg width="57" height="39" viewBox="0 0 57 39" fill="none" xmlns="http://www.w3.org/2000/svg">
<rect x="0.819885" y="0.402648" width="55.5992" height="37.8719" rx="4.43182" fill="white" stroke="#D9D9D9" stroke-width="0.805785"/>
<path fill-rule="evenodd" clip-rule="evenodd" d="M17.5402 26.2012H14.1232L11.5608 16.4256C11.4392 15.9759 11.181 15.5784 10.8011 15.391C9.85312 14.9202 8.80852 14.5454 7.66895 14.3564V13.9801H13.1735C13.9333 13.9801 14.503 14.5454 14.598 15.202L15.9275 22.2535L19.3429 13.9801H22.665L17.5402 26.2012ZM24.5641 26.2012H21.337L23.9943 13.9801H27.2214L24.5641 26.2012ZM31.3966 17.3658C31.4916 16.7076 32.0613 16.3313 32.7261 16.3313C33.7707 16.2368 34.9086 16.4258 35.8582 16.895L36.428 14.2637C35.4784 13.8874 34.4338 13.6984 33.4858 13.6984C30.3537 13.6984 28.0745 15.3912 28.0745 17.7406C28.0745 19.5279 29.6889 20.4663 30.8285 21.0317C32.0613 21.5954 32.5362 21.9718 32.4412 22.5355C32.4412 23.3811 31.4916 23.7574 30.5436 23.7574C29.404 23.7574 28.2644 23.4756 27.2215 23.0047L26.6517 25.6376C27.7913 26.1068 29.0242 26.2958 30.1637 26.2958C33.6757 26.3887 35.8582 24.6975 35.8582 22.1591C35.8582 18.9625 31.3966 18.7751 31.3966 17.3658ZM47.1523 26.2012L44.5899 13.9801H41.8376C41.2678 13.9801 40.698 14.3564 40.5081 14.9202L35.7632 26.2012H39.0853L39.7484 24.4155H43.8302L44.21 26.2012H47.1523ZM42.3124 17.2713L43.2604 21.8772H40.6031L42.3124 17.2713Z" fill="#172B85"/>
</svg>
