<svg xmlns="http://www.w3.org/2000/svg" width="54" height="54" viewBox="0 0 54 54" fill="none">
<path d="M24.75 31.5H29.25C32.9409 31.4986 36.562 32.5061 39.7218 34.4135C42.8816 36.321 45.4599 39.0559 47.178 42.3225C47.2263 41.7162 47.2503 41.1082 47.25 40.5C47.25 28.0732 37.1767 18 24.75 18V5.625L1.125 24.75L24.75 43.875V31.5ZM29.25 27H20.25V34.443L8.27775 24.75L20.25 15.057V22.5H24.75C27.3369 22.4971 29.894 23.0531 32.2461 24.1299C34.5983 25.2068 36.69 26.7791 38.3782 28.7393C35.4728 27.5877 32.3753 26.9976 29.25 27Z" fill="white"/>
</svg>