<svg xmlns="http://www.w3.org/2000/svg" width="19" height="27" viewBox="0 0 19 27" fill="none">
<rect y="0.759766" width="19" height="16.72" fill="#78C260"/>
<path d="M0 25.8398H19" stroke="#78C260" stroke-width="2"/>
<path d="M8.49902 6.53C9.59902 6.53 10.564 6.745 11.394 7.175C12.234 7.605 12.879 8.22 13.329 9.02C13.789 9.81 14.019 10.73 14.019 11.78C14.019 12.83 13.789 13.75 13.329 14.54C12.879 15.32 12.234 15.925 11.394 16.355C10.564 16.785 9.59902 17 8.49902 17H4.83902V6.53H8.49902ZM8.42402 15.215C9.52402 15.215 10.374 14.915 10.974 14.315C11.574 13.715 11.874 12.87 11.874 11.78C11.874 10.69 11.574 9.84 10.974 9.23C10.374 8.61 9.52402 8.3 8.42402 8.3H6.93902V15.215H8.42402Z" fill="white"/>
<path d="M9.5 25.0801L0 17.4801L19 17.4801L9.5 25.0801Z" fill="#77C360"/>
</svg>