<svg xmlns="http://www.w3.org/2000/svg" width="80" height="46" viewBox="0 0 80 46" fill="none">
<path fill-rule="evenodd" clip-rule="evenodd" d="M3 0C1.34315 0 0 1.34315 0 3V31C0 32.6569 1.34315 34 3 34H56.7072L64 46L71.2928 34H77C78.6569 34 80 32.6569 80 31V3C80 1.34315 78.6569 0 77 0H3Z" fill="#F9FE00"/>
<path d="M12.1536 23L9.38164 18.104H8.19364V23H5.67364V10.436H10.3896C11.3616 10.436 12.1896 10.61 12.8736 10.958C13.5576 11.294 14.0676 11.756 14.4036 12.344C14.7516 12.92 14.9256 13.568 14.9256 14.288C14.9256 15.116 14.6856 15.866 14.2056 16.538C13.7256 17.198 13.0116 17.654 12.0636 17.906L15.0696 23H12.1536ZM8.19364 16.214H10.2996C10.9836 16.214 11.4936 16.052 11.8296 15.728C12.1656 15.392 12.3336 14.93 12.3336 14.342C12.3336 13.766 12.1656 13.322 11.8296 13.01C11.4936 12.686 10.9836 12.524 10.2996 12.524H8.19364V16.214ZM26.4749 17.798C26.4749 18.158 26.4509 18.482 26.4029 18.77H19.1129C19.1729 19.49 19.4249 20.054 19.8689 20.462C20.3129 20.87 20.8589 21.074 21.5069 21.074C22.4429 21.074 23.1089 20.672 23.5049 19.868H26.2229C25.9349 20.828 25.3829 21.62 24.5669 22.244C23.7509 22.856 22.7489 23.162 21.5609 23.162C20.6009 23.162 19.7369 22.952 18.9689 22.532C18.2129 22.1 17.6189 21.494 17.1869 20.714C16.7669 19.934 16.5569 19.034 16.5569 18.014C16.5569 16.982 16.7669 16.076 17.1869 15.296C17.6069 14.516 18.1949 13.916 18.9509 13.496C19.7069 13.076 20.5769 12.866 21.5609 12.866C22.5089 12.866 23.3549 13.07 24.0989 13.478C24.8549 13.886 25.4369 14.468 25.8449 15.224C26.2649 15.968 26.4749 16.826 26.4749 17.798ZM23.8649 17.078C23.8529 16.43 23.6189 15.914 23.1629 15.53C22.7069 15.134 22.1489 14.936 21.4889 14.936C20.8649 14.936 20.3369 15.128 19.9049 15.512C19.4849 15.884 19.2269 16.406 19.1309 17.078H23.8649ZM27.6663 17.996C27.6663 17 27.8703 16.118 28.2783 15.35C28.6983 14.57 29.2623 13.964 29.9703 13.532C30.6783 13.1 31.4583 12.884 32.3103 12.884C33.0183 12.884 33.6423 13.022 34.1823 13.298C34.7343 13.562 35.1783 13.904 35.5143 14.324V13.028H38.0523V27.752H35.5143V21.632C35.1783 22.064 34.7283 22.424 34.1643 22.712C33.6003 23 32.9643 23.144 32.2563 23.144C31.4163 23.144 30.6423 22.928 29.9343 22.496C29.2383 22.052 28.6863 21.44 28.2783 20.66C27.8703 19.88 27.6663 18.992 27.6663 17.996ZM35.5143 18.014C35.5143 17.402 35.3883 16.874 35.1363 16.43C34.8843 15.986 34.5543 15.65 34.1463 15.422C33.7503 15.194 33.3243 15.08 32.8683 15.08C32.4243 15.08 31.9983 15.194 31.5903 15.422C31.1943 15.65 30.8703 15.986 30.6183 16.43C30.3663 16.862 30.2403 17.384 30.2403 17.996C30.2403 18.608 30.3663 19.142 30.6183 19.598C30.8703 20.042 31.1943 20.378 31.5903 20.606C31.9983 20.834 32.4243 20.948 32.8683 20.948C33.3243 20.948 33.7503 20.834 34.1463 20.606C34.5543 20.378 34.8843 20.042 35.1363 19.598C35.3883 19.154 35.5143 18.626 35.5143 18.014ZM49.9275 13.028V23H47.3895V21.74C47.0655 22.172 46.6395 22.514 46.1115 22.766C45.5955 23.006 45.0315 23.126 44.4195 23.126C43.6395 23.126 42.9495 22.964 42.3495 22.64C41.7495 22.304 41.2755 21.818 40.9275 21.182C40.5915 20.534 40.4235 19.766 40.4235 18.878V13.028H42.9435V18.518C42.9435 19.31 43.1415 19.922 43.5375 20.354C43.9335 20.774 44.4735 20.984 45.1575 20.984C45.8535 20.984 46.3995 20.774 46.7955 20.354C47.1915 19.922 47.3895 19.31 47.3895 18.518V13.028H49.9275ZM53.6919 11.84C53.2479 11.84 52.8759 11.702 52.5759 11.426C52.2879 11.138 52.1439 10.784 52.1439 10.364C52.1439 9.944 52.2879 9.596 52.5759 9.32C52.8759 9.032 53.2479 8.888 53.6919 8.888C54.1359 8.888 54.5019 9.032 54.7899 9.32C55.0899 9.596 55.2399 9.944 55.2399 10.364C55.2399 10.784 55.0899 11.138 54.7899 11.426C54.5019 11.702 54.1359 11.84 53.6919 11.84ZM54.9339 13.028V23H52.4139V13.028H54.9339ZM59.9436 14.576C60.2676 14.048 60.6876 13.634 61.2036 13.334C61.7316 13.034 62.3316 12.884 63.0036 12.884V15.53H62.3376C61.5456 15.53 60.9456 15.716 60.5376 16.088C60.1416 16.46 59.9436 17.108 59.9436 18.032V23H57.4236V13.028H59.9436V14.576ZM73.971 17.798C73.971 18.158 73.947 18.482 73.899 18.77H66.609C66.669 19.49 66.921 20.054 67.365 20.462C67.809 20.87 68.355 21.074 69.003 21.074C69.939 21.074 70.605 20.672 71.001 19.868H73.719C73.431 20.828 72.879 21.62 72.063 22.244C71.247 22.856 70.245 23.162 69.057 23.162C68.097 23.162 67.233 22.952 66.465 22.532C65.709 22.1 65.115 21.494 64.683 20.714C64.263 19.934 64.053 19.034 64.053 18.014C64.053 16.982 64.263 16.076 64.683 15.296C65.103 14.516 65.691 13.916 66.447 13.496C67.203 13.076 68.073 12.866 69.057 12.866C70.005 12.866 70.851 13.07 71.595 13.478C72.351 13.886 72.933 14.468 73.341 15.224C73.761 15.968 73.971 16.826 73.971 17.798ZM71.361 17.078C71.349 16.43 71.115 15.914 70.659 15.53C70.203 15.134 69.645 14.936 68.985 14.936C68.361 14.936 67.833 15.128 67.401 15.512C66.981 15.884 66.723 16.406 66.627 17.078H71.361Z" fill="#FC0A0A"/>
</svg>