<svg xmlns="http://www.w3.org/2000/svg" width="19" height="27" viewBox="0 0 19 27" fill="none">
<rect width="19" height="16.72" fill="#78C260"/>
<path d="M0 25.0801H19" stroke="#78C260" stroke-width="2"/>
<path d="M9.5 24.3203L0 16.7203L19 16.7203L9.5 24.3203Z" fill="#77C360"/>
<g clip-path="url(#clip0_14992_5430)">
<path d="M15.9895 7.63497C15.9641 7.55721 15.8969 7.5005 15.8159 7.48869L11.9303 6.92399L10.1926 3.40306C10.1565 3.3296 10.0817 3.2832 10.0001 3.2832C9.91848 3.2832 9.84352 3.3296 9.80765 3.40306L8.06974 6.92421L4.18408 7.48891C4.1031 7.50072 4.03608 7.55721 4.01052 7.63518C3.98539 7.71272 4.00623 7.79821 4.06487 7.85513L6.87676 10.5959L6.21283 14.4661C6.19908 14.5467 6.23216 14.6281 6.2981 14.6762C6.36447 14.7247 6.45232 14.731 6.52428 14.6925L10.0001 12.8655L13.4755 14.6925C13.5069 14.7091 13.5414 14.7172 13.5756 14.7172C13.6201 14.7172 13.6643 14.7035 13.7019 14.6762C13.7681 14.6281 13.8011 14.5467 13.7872 14.4661L13.1235 10.5961L15.9353 7.85513C15.9938 7.79778 16.0148 7.71251 15.9895 7.63497Z" fill="white"/>
</g>
<defs>
<clipPath id="clip0_14992_5430">
<rect width="12" height="12" fill="white" transform="translate(4 3)"/>
</clipPath>
</defs>
</svg>