<svg xmlns="http://www.w3.org/2000/svg" width="19" height="27" viewBox="0 0 19 27" fill="none">
<rect y="0.759766" width="19" height="16.72" fill="#78C260"/>
<path d="M0 25.8398H19" stroke="#78C260" stroke-width="2"/>
<path d="M10.8103 16L8.50031 11.92H7.51031V16H5.41031V5.53H9.34031C10.1503 5.53 10.8403 5.675 11.4103 5.965C11.9803 6.245 12.4053 6.63 12.6853 7.12C12.9753 7.6 13.1203 8.14 13.1203 8.74C13.1203 9.43 12.9203 10.055 12.5203 10.615C12.1203 11.165 11.5253 11.545 10.7353 11.755L13.2403 16H10.8103ZM7.51031 10.345H9.26531C9.83531 10.345 10.2603 10.21 10.5403 9.94C10.8203 9.66 10.9603 9.275 10.9603 8.785C10.9603 8.305 10.8203 7.935 10.5403 7.675C10.2603 7.405 9.83531 7.27 9.26531 7.27H7.51031V10.345Z" fill="white"/>
<path d="M9.5 25.0801L0 17.4801L19 17.4801L9.5 25.0801Z" fill="#77C360"/>
</svg>