<svg xmlns="http://www.w3.org/2000/svg" width="38" height="38" viewBox="0 0 38 38" fill="none">
<mask id="mask0_12561_3822" style="mask-type:alpha" maskUnits="userSpaceOnUse" x="3" y="3" width="32" height="32">
<rect x="3.27637" y="3.27588" width="31.6645" height="31.6645" rx="15.8322" fill="#C4C4C4"/>
</mask>
<g mask="url(#mask0_12561_3822)">
<rect x="2.94238" y="-1.72363" width="32.3311" height="44.6636" rx="16.1656" fill="#EFEEEE"/>
</g>
<rect x="0.327586" y="0.327586" width="37.3448" height="37.3448" rx="18.6724" stroke="#77D05C" stroke-width="0.655172"/>
<path fill-rule="evenodd" clip-rule="evenodd" d="M23.2365 14.8389C23.2365 17.4344 21.1554 19.5156 18.5581 19.5156C15.9616 19.5156 13.8797 17.4344 13.8797 14.8389C13.8797 12.2434 15.9616 10.1631 18.5581 10.1631C21.1554 10.1631 23.2365 12.2434 23.2365 14.8389ZM18.558 27.8374C14.7248 27.8374 11.4883 27.2144 11.4883 24.8106C11.4883 22.406 14.7451 21.8051 18.558 21.8051C22.3922 21.8051 25.6278 22.4281 25.6278 24.8318C25.6278 27.2365 22.371 27.8374 18.558 27.8374Z" fill="#C9C9C9"/>
</svg>