<svg width="25" height="22" viewBox="0 0 25 22" fill="none"
    xmlns="http://www.w3.org/2000/svg">
    <path fill-rule="evenodd" clip-rule="evenodd" d="M16.7122 3.62961e-05C16.9602 -0.00199705 17.1737 0.0813702 17.3588 0.258272L20.057 2.84062C20.2319 3.00736 
    20.3173 3.22899 20.3214 3.473C20.3254 3.72106 20.2522 3.94677 20.0814 4.1196L18.6459 5.61411L14.6585 1.76295L16.0798 0.282672C16.2547 0.101704 16.4661 
    0.00410299 16.7122 3.62961e-05ZM4.08303 13.8858C4.57103 13.7353 5.08547 14.0098 5.23594 14.4958C5.3864 14.9838 5.1119 15.4982 4.62593 15.6487C3.20665 
    16.0838 2.25505 16.9256 1.93988 17.7166C1.85651 17.9281 1.82804 18.1212 1.86058 18.2798C1.88498 18.3998 1.95818 18.5096 2.07815 18.597C2.59665 18.9752 
    3.71296 19.0728 5.58771 18.6174C6.69791 18.3469 7.88742 17.9809 8.9407 17.6556C10.0163 17.3242 10.9557 17.0334 11.6084 16.9114C12.8122 16.6877 14.0139 
    16.5352 14.9838 16.584C16.2567 16.6471 17.2124 17.0558 17.5397 18.0338C17.7512 18.6662 17.6922 19.2152 17.6394 19.7073C17.6211 19.8842 17.6028 20.0489 
    17.6109 20.1566C17.6109 20.1607 17.8041 20.1465 18.7353 20.0733C19.813 19.9879 20.9293 19.5629 22.0314 19.142C22.5967 18.9264 23.1579 18.7129 23.7943 
    18.5177C24.2823 18.3693 24.7967 18.6458 24.9431 19.1318C25.0916 19.6198 24.8151 20.1343 24.3291 20.2807C23.835 20.4311 23.2636 20.6507 22.6902 20.8683C21.4621 
    21.336 20.2217 21.8097 18.8797 21.9155C16.4255 22.1086 15.8561 21.4153 15.7687 20.299C15.7483 20.0367 15.7748 19.7825 15.8032 19.51C15.8358 19.205 15.8724 
    18.8634 15.789 18.6174C15.7524 18.5076 15.4047 18.4506 14.8964 18.4262C14.0851 18.3856 13.0216 18.5238 11.9399 18.7251C11.401 18.8248 10.5064 19.1013 9.48157 
    19.4185C8.40999 19.75 7.20015 20.1221 6.02081 20.4088C3.55232 21.0086 1.91141 20.7544 0.992338 20.0834C0.475867 19.7073 0.168831 19.2152 0.0508971 
    18.6601C-0.0589037 18.1436 0.00413014 17.5865 0.223732 17.0334C0.723936 15.7849 2.10051 14.4917 4.08303 13.8858ZM8.39169 9.85161L10.8378 12.2042L7.84676 
    13.0074C7.73899 13.0277 7.69629 12.985 7.71459 12.8854L8.39169 9.85161ZM13.3937 3.07243L17.3771 6.90936L11.9358 12.6536L7.05985 13.961C6.88498 13.9956 
    6.81585 13.9264 6.84431 13.7617L7.94842 8.81867L13.3937 3.07243Z" fill="#A402B8"/>
</svg>
